<svg version="1.1" id="Layer_1" xmlns="http://www.w3.org/2000/svg" xmlns:xlink="http://www.w3.org/1999/xlink" x="0px" y="0px"
	 width="260px" height="320px" viewBox="0 0 260 320" enable-background="new 0 0 260 320" xml:space="preserve">
<g>
	<path fill="#FFFFFF" stroke="#D1D3D4" stroke-width="0.684" d="M50.729,292.564c-0.251-1.516-1.231-2.336-2.13-2.984
		c-0.506-0.365-1.007-0.51-1.409-0.625c-0.387-0.109-0.575-0.182-0.734-0.344c-0.121-0.842-0.961-1.092-1.453-1.217
		c-0.59-0.15-1.182-0.137-1.705-0.125l-0.361,0.008l-1.461,0.059l-0.783,0.043l-1.504,0.008c-1.729-0.021-3.518-0.043-5.098,0.828
		c-2.184,1.201-4.105,1.938-5.409,2.07c-2.156,0.221-4.062,0.889-6.082,1.598l-0.633,0.221c-2.649,0.922-4.681,2.422-6.213,4.592
		l-0.81,1.363c-0.493,0.926-0.791,1.486-1.782,1.855l-0.497,0.141c-0.538,0.133-1.274,0.314-1.815,1.025
		c-0.412,0.541-0.575,1.213-0.717,1.805c-0.096,0.402-0.197,0.816-0.35,1.066c-0.029,0.047-0.023,0.102-0.043,0.15
		c-0.119,0.162-0.204,0.35-0.207,0.57c0,0.006,0,0.014,0,0.02c0,1.051,0.827,2.184,1.748,3.35l0.25,0.32
		c0.691,0.906,1.434,1.174,2.032,1.389c0.321,0.115,0.575,0.207,0.827,0.391c0,0,0.095,0.08,0.131,0.107
		c0.01,0.053,0.04,0.209,0.04,0.209l0.058,0.32c0.085,0.471,0.487,0.805,0.963,0.83l0.315,0.016
		c0.799,0.045,1.793,0.102,2.685-0.695c0.353-0.314,0.568-0.766,0.778-1.201c0.056-0.117,0.131-0.268,0.202-0.396
		c0.088,0.059,0.617,0.414,0.617,0.414l1.091,0.045l0.24-0.023l0.809,0.059c1.897,0.135,3.857,0.275,5.867,0.09
		c1.471-0.137,2.767-0.639,4.02-1.125l1.206-0.453c1.525-0.539,3.18-0.666,4.933-0.803l1.53-0.129
		c1.33-0.131,2.333-0.738,3.218-1.273l1.33-0.719c0-0.002,0.552-0.217,0.552-0.217c0.871-0.332,1.858-0.707,2.646-1.525
		c0.563-0.586,0.745-1.186,0.892-1.668l0.245-0.662c0.234-0.449,0.641-0.889,1.072-1.355c0.606-0.656,1.294-1.4,1.665-2.369
		c0.192-0.5,0.267-0.967,0.267-1.402c0-0.904-0.321-1.676-0.597-2.34C50.977,293.42,50.799,292.994,50.729,292.564z"/>
	<path fill="#FFFFFF" stroke="#D1D3D4" stroke-width="0.684" d="M16.525,81.125c0.009,0.074,0.075,0.117,0.099,0.185
		c0.036,0.105,0.035,0.219,0.108,0.312l0.093,0.118c0.175,0.223,0.269,0.346,0.311,0.476l0.054,0.246
		c0.067,0.394,0.208,1.212,1.347,1.536c0,0,0.989,0.099,0.989,0.099l0.79,0.653l0.306,0.149l0.456,0.267
		c0.813,0.645,1.696,0.929,2.554,0.823c0.795-0.099,1.504-0.53,2.054-1.247c0.329-0.431,0.422-0.885,0.49-1.217l0.066-0.282
		c0.043-0.137,0.147-0.253,0.343-0.462l0.395-0.456l0.756-1.232c0.068-0.08,0.172-0.124,0.429-0.22l0.659-0.294l0.428-0.326
		c0,0,0.008-0.007,0.011-0.01c0.052,0.007,0.105,0.015,0.105,0.015c0.28,0.047,0.704,0.117,1.171-0.053
		c0.541-0.198,1.261-0.814,1.483-1.466c0.082-0.241,0.105-0.477,0.105-0.695c0-0.165-0.013-0.32-0.025-0.461l-0.016-0.333
		c0.001,0,0.101-0.259,0.101-0.259c0.118-0.269,0.274-0.628,0.274-1.085c0-0.047-0.001-0.095-0.005-0.144
		c-0.077-1.064-0.994-2.146-2.002-2.364c0,0-0.445-0.011-0.635-0.015c-0.045-0.249-0.091-0.501-0.091-0.501
		c-0.356-0.697-0.927-0.913-1.257-1.017c-0.096-0.363-0.382-0.729-0.711-0.861l-0.611-0.245c-0.389-0.187-0.871-0.42-1.529-0.44
		c-0.001,0-0.564-0.001-0.564-0.001l-0.28,0.002l-0.109,0c-0.359-0.002-0.767-0.006-1.246,0.188
		c-0.007,0.003,0.078-0.016,0.078-0.016c-0.004,0-0.802,0.417-0.802,0.417c0,0.001-0.492,0.838-0.492,0.838
		s-0.084,0.201-0.085,0.201c-0.001,0.001-0.269,0.396-0.269,0.396c-0.385,0.553-0.821,1.18-0.93,2.021
		c-0.053,0.408-0.161,0.706-0.411,1.135c-0.474,0.814-0.742,0.971-1.098,0.986l-0.724-0.033l-1.281-0.014
		c-0.793,0.094-1.348,0.419-1.65,0.966c-0.153,0.278-0.214,0.569-0.214,0.863c0,0.69,0.338,1.398,0.627,2.002
		C16.304,80.545,16.505,80.967,16.525,81.125z"/>
	<path fill="#FFFFFF" stroke="#D1D3D4" stroke-width="0.684" d="M122.286,8.75l0.086-0.006l-1.156,0.042
		c-0.92,0.004-2.109,0.01-3.124,0.493c-1.127,0.537-1.512,1.354-1.766,1.894c-0.168,0.359-0.184,0.367-0.28,0.417l-1.021,0.482
		c-0.959,0.432-1.97,0.888-3.099,1.902l-0.838,0.84c-0.378,0.404-0.684,0.731-1.08,1.012c-1.993,1.414-3.916,2.004-6.622,2.743
		c-1.735,0.474-3.46,0.521-5.288,0.57l-2.669,0.118l-2.518,0.235c-2.151,0.221-4.171,0.428-6.324,0.259
		c-1.829-0.143-3.766-0.543-5.639-0.93c-2.441-0.504-4.965-1.026-7.487-1.055c-1.839-0.021-3.166,0.021-4.792,0.778
		c-1.473,0.686-2.924,1.254-4.226,1.747c-0.866,0.402-2.081,1.183-2.964,1.804c-0.536,0.504-1.03,1.038-1.431,1.493
		c-0.599,0.681-1.214,1.383-1.846,1.829c-1.162,0.822-2.881,1.364-4.543,1.889c-1.36,0.43-2.767,0.874-4.006,1.499l-0.517,0.26
		c-4.579,2.302-9.771,4.913-12.39,9.85L36.704,39l-0.031,0.091c-0.618,1.844-0.826,2.466-0.897,2.735
		c0.006-0.042,0.016-0.103,0.016-0.103c-0.588,1.82-0.923,1.821-3.101,1.823l-2.115,0.064c-0.676,0.022-1.237,0.484-1.399,1.148
		L29.05,45.79c0,0.906,0.304,1.636,0.653,2.259c-0.984-0.543-2.321-0.819-4.061,0.232c-0.537,0.323-0.818,0.956-0.7,1.572
		c0.083,0.427-0.102,0.882-0.409,1.589c-0.214,0.496-0.459,1.058-0.585,1.693c-0.469,2.349,0.467,3.442,1.149,4.24
		c0.282,0.329,0.505,0.589,0.637,0.942c0.052,0.14,0.067,0.178-0.34,0.737c-0.482,0.666-1.38,1.903-0.557,3.551
		c1.137,2.278,4.438,1.998,6.623,1.812l0.842-0.062l1.046-0.531c0,0,0.162-0.512,0.267-0.842c0.547,0.388,1.194,1.029,1.302,1.37
		c0.062,0.217,0.078,0.538,0.078,0.875c0,0.184-0.005,0.372-0.009,0.552c-0.005,0.201-0.009,0.412-0.009,0.627
		c0,0.386,0.016,0.788,0.08,1.18c0.194,1.188,0.594,3.034,1.083,4.33c0.636,1.683,1.821,2.559,2.867,3.331
		c1.007,0.744,1.732,1.299,2.007,2.486c-0.009,0.123-0.017,0.247-0.017,0.247l0.008-0.078c-0.025,0.179-0.055,0.399-0.055,0.639
		c0,0.3,0.047,0.632,0.21,0.956c0.593,1.179,1.446,1.379,2.122,1.422l0.002,0c0.156,0.127,0.292,0.293,0.444,0.497
		c0.297,0.399,0.752,0.972,1.525,1.285c-0.021,0.468-0.069,0.93-0.185,1.118c-0.04,0.004-0.095,0.006-0.223-0.013
		c-0.279-0.042-0.412-0.13-0.655-0.291c-0.475-0.314-1.269-0.838-2.645-0.531c-1.007,0.225-2.542,1.598-2.73,2.694
		c-0.015,0.083-0.021,0.168-0.021,0.252c0,0.376,0.141,0.746,0.399,1.025c0.147,0.16,0.328,0.279,0.525,0.362
		c-0.089,0.134-0.152,0.238-0.267,0.4l-0.561,0.871l-0.033,0.071c-0.234,0.5-0.35,1.01-0.35,1.498c0,0.638,0.199,1.238,0.589,1.727
		c0.777,0.973,2.119,1.335,3.683,0.996c0.135-0.03,0.231-0.125,0.35-0.187c-0.067,0.237-0.11,0.465-0.11,0.669
		c0,0.683,0.306,1.172,0.466,1.428l-0.067-0.124c0,0,0.055,0.117,0.109,0.232c0.019,0.323,0.075,1.274,0.075,1.274
		c0.003,0.731,0.008,1.629,0.269,2.443c0.381,1.189,1.418,2.257,2.517,3.388c0.664,0.684,1.392,1.436,1.803,2.072
		c-0.057,0.087-0.136,0.158-0.182,0.253c-0.093,0.198-0.108,0.413-0.139,0.625c-0.468,0.069-0.936,0.043-1.092-0.025
		c0,0-0.023-0.012-0.031-0.016c-0.048-0.066-0.116-0.319-0.167-0.505c-0.192-0.715-0.484-1.796-1.719-2.499
		c-0.967-0.55-2.405-0.666-3.675-0.769l-1.472-0.169l-1.308-0.222c-1.271-0.178-1.654-0.237-2.359-1.184
		c-0.063-0.104-0.479-0.789-0.479-0.789c-0.442-0.823-1.23-2.285-3.585-2.193c-1.111,0.044-1.846,0.458-2.435,0.792
		c-0.386,0.218-0.664,0.375-1.038,0.435l0.184-0.015L27.935,97.9c-1.719,0.258-3.669,0.55-4.622,2.122
		c-0.319,0.526-0.479,1.114-0.479,1.773c0,0.562,0.116,1.176,0.349,1.849l0.019,0.057l0.553,1.188l0.022,0.04
		c0.228,0.407,0.305,0.544,0.315,1.107l0.01,0.452c0.006,0.23,0.011,0.42,0.011,0.579c0,0.734-0.104,0.813-0.688,1.253
		c-0.904,0.682-1.402,0.894-1.653,0.968c0.004-0.13,0.051-0.325,0.161-0.696c0.125-0.422,0.291-0.984,0.291-1.619
		c0-0.647-0.172-1.372-0.738-2.1c-0.414-0.536-1.141-0.728-1.768-0.467l-2.052,0.855l0.245-0.072
		c-4.042,0.715-5.779,5.552-5.436,8.622c0.254,2.269,1.444,2.896,2.399,3.399c0.374,0.197,0.726,0.382,1.084,0.7l1.285,1.041
		c0.895,0.694,1.798,1.396,2.23,2.022c0.528,0.767,0.433,1.881,0.324,3.172c-0.102,1.199-0.217,2.557,0.219,3.849l0.349,0.953
		c0.301,0.785,0.464,1.208,0.479,2.089l0.006,0.394c0.025,1.746,0.051,3.55,1.424,5.469c0.478,0.668,1.201,1.678,2.373,1.769
		c1.033,0.08,1.814-0.561,2.504-1.264c1.07-1.091,1.389-2.144,1.389-3.013c0-0.383-0.061-0.731-0.149-1.03
		c-0.19-0.651-0.672-1.037-0.991-1.292c0,0-0.028-0.023-0.047-0.039c-0.158-0.443-0.263-1.097-0.336-1.606l-0.023-0.158
		c-0.206-1.417-0.227-2.901-0.231-4.424l-0.021-0.672c-0.007-0.136-0.017-0.345-0.017-0.521c0-0.082,0.007-0.13,0.013-0.187
		c0.013-0.003,0.039-0.01,0.068-0.017c0.066,0.269,0.117,0.667,0.148,0.914l0.104,0.725c0.248,1.309,0.819,2.171,1.324,2.932
		c0.402,0.608,0.72,1.088,0.837,1.706c0.068,0.354,0.09,0.753,0.09,1.171c0,0.407-0.021,0.832-0.042,1.25l-0.043,1.302
		c0,0.012,0,0.024,0,0.036c0,1.583,0.043,3.011,0.539,4.777c0.354,1.26,0.386,2.457,0.424,3.843l0.064,1.681l0.15,2.02
		c0.102,1.242,0.206,2.513,0.206,3.773c0,0.247-0.005,0.494-0.014,0.74c-0.011,0.098-0.083,0.685-0.083,0.685
		c-0.065,0.438-0.133,0.894-0.133,1.331c0,0.278,0.028,0.549,0.1,0.801c0.402,1.396,1.375,2.01,2.156,2.504
		c0,0,0.884,0.645,0.984,0.717c0.043,0.039,0.095,0.088,0.095,0.088c1.185,1.088,2.491,2.307,2.553,3.561
		c-0.303,0.277-0.52,0.623-0.622,1.018c-0.432,0.23-0.999,0.604-1.486,1.365c-0.379,0.594-0.535,1.172-0.535,1.725
		c0,1.881,1.804,3.475,2.787,4.342l0.383,0.342l0.803,0.752l1.958,1.756c0.034,0.029,0.409,0.344,0.409,0.344
		c0.212,0.189,0.593,0.508,1.136,0.695c0.007,0.145,0.012,0.27,0.012,0.27s-0.023,0.291-0.031,0.383c-0.332,0.326-1.606,0.83-2.04,1
		l-0.534,0.213l-0.705,0.271c-0.681,0.246-1.405,0.51-2.304,1.279c-1.311,1.119-1.564,1.863-1.591,2.924
		c-0.007,0.299-0.012,0.533-0.171,0.982c-0.245,0.691-0.967,0.936-2.226,1.309c-1.107,0.328-2.361,0.699-3.304,1.688
		c-0.646,0.678-0.972,1.396-0.972,2.141l0.116,0.748c0.61,1.938,3.256,2.734,6.72,3.463c-0.677,0.23-1.416,0.432-1.779,0.529
		c-1.314,0.355-2.445,0.66-3.174,1.232c-1.12,0.877-2.993,3.354-3.729,5.496c-0.823,1.611-1.402,2.029-1.402,2.033
		c0,0.404,0.136,0.771,0.338,1.105c-0.234,1.402-0.977,2.416-2.159,3.85c-0.878,1.062-1.87,2.264-2.578,3.842l-0.132,0.287
		c-0.612,1.316-0.908,2.045-0.929,2.609l-0.003,0.158c0,1.625,0.989,2.32,1.627,2.738c0.025,0.021,0.558,0.439,0.718,0.566
		c0.182,0.211,0.364,0.57,0.557,0.961c0.288,0.584,0.613,1.246,1.14,1.801l0.036,0.037l1.067,0.939c0.61,0.49,1.06,0.85,1.344,1.416
		c0.241,0.479,0.358,0.893,0.358,1.26c0,0.615-0.323,1.244-1.15,2.242c-1.095,1.32-1.584,2.506-1.584,3.842
		c0,0.738,0.148,1.527,0.465,2.48c0.226,0.678,0.34,1.432,0.34,2.24c0,2.146-0.838,4.764-2.243,7l0,0
		c0,0.002-0.231,0.799-0.231,0.799l0.294,0.895c1.337,1.799,3.135,1.949,4.58,2.07c0.576,0.049,1.167,0.098,1.643,0.256
		c0.829,0.275,0.849,0.334,1.095,1.037l0.364,0.93l0.151,0.34c0.176,0.398,0.481,1.014,1.007,1.531
		c-0.328,0.252-0.903,0.576-1.785,0.99l-1.146,0.58l-0.954,0.684c-0.455,0.35-0.852,0.654-1.174,0.727
		c-0.347,0.076-0.787,0.021-0.989-0.057c0.001-0.037,0.005-0.061,0.005-0.102c0-0.375-0.076-0.93-0.511-1.488
		c-0.288-0.369-4.486-3.607-6.44-2.676c-1.042,0.496-1.293,1.506-1.293,2.459c0,0.545,0.082,1.07,0.144,1.471l0.074,0.57
		l0.079,0.809c0.04,0.34,0.125,1.072,0.125,1.551c0,0.105-0.012,0.172-0.021,0.244c-0.262,0.172-0.859,0.42-1.209,0.564
		c-0.786,0.324-1.599,0.658-2.177,1.174l-0.468,0.412c-1.663,1.453-4.533,3.963-4.533,6.754c0,0.533,0.105,1.076,0.342,1.623
		c1.843,4.25,8.691,1.961,10.94,1.209c2.629-0.879,2.462-3.363,2.363-4.848c-0.058-0.877-0.119-1.781,0.232-2.232
		c0.232-0.299,1.002-0.621,1.754-0.734c0.377-0.057,0.506-0.045,0.555-0.037c0.075,0.09,0.209,0.334,0.324,0.545l0.563,0.973
		l0.801,1.117c0.576,0.756,0.854,1.121,0.975,1.922c0.001,0.012,0.117,0.766,0.117,0.766s0.377,2.68,0.388,2.758
		c0.005,0.074,0.051,0.73,0.051,0.73c0.041,0.967,0.095,2.209,1.931,3.277c1.235,0.719,4.616,1.25,6.185,0.117
		c0.847-0.611,1.257-1.721,1.653-2.793c0.176-0.477,0.395-1.068,0.564-1.309c0.71-1.006,1.556-1.74,2.779-2.672
		c1.743-1.328,3.963-2.053,4.708-1.57c0.037,0.094,0.081,0.207,0.081,0.207c0.194,0.535,0.487,1.346,1.331,1.795
		c0.625,0.332,1.374,0.299,2.363,0.213l0.457-0.031c1.7-0.004,3.408-0.166,4.768-2.072c1.543-2.16,1.418-5.033,1.318-7.342
		l-0.049-1.684c0-2.516,0.755-4.025,2.521-5.014c0.469-0.264,1.332-0.176,2.245-0.082c1.449,0.148,3.253,0.332,4.838-0.783
		c0.611-0.43,1.005-0.955,1.353-1.42s0.572-0.752,0.848-0.855c0.665-0.248,1.699-0.188,2.7-0.127
		c0.081,0.443,0.186,0.873,0.307,1.301c0.188,0.662,0.349,1.232,0.349,1.824l-0.032,0.445c-0.121,0.842-0.128,0.893-1.948,0.85
		l-1.308-0.002c-0.527,0-1.006,0.275-1.28,0.736c-0.715,1.211-1.022,1.674-2.197,2.602l-0.335,0.27
		c-0.457,0.369-0.688,0.545-1.147,0.738c-0.212,0.029-0.39,0.055-0.43,0.061c-0.506,0.035-1.381,0.119-1.949,0.891
		c-0.323,0.438-0.412,0.918-0.412,1.322c0,0.363,0.072,0.666,0.108,0.818c0.753,3.172,4.814,2.914,6.548,2.805l0.386-0.023
		c0.312-0.016,0.578-0.07,0.823-0.156c0.088,0.045,0.197,0.1,0.197,0.1c0.739,0.395,1.381,1.041,1.452,1.285l-0.006-0.066
		c0,0.645,0.409,1.217,1.019,1.426c1.035,0.352,2.204,0.111,3.143-0.084l0.736-0.137c1.866-0.254,2.366-0.93,3.15-2.201
		c0,0,0.004-0.008,0.005-0.01c0.033-0.02,0.28-0.172,0.28-0.172c0.475-0.27,1.268-0.719,1.513-1.729
		c0.118-0.488,0.176-1.066,0.176-1.766c0,0-0.06-1.205-0.078-1.596c1.479-1.225,1.762-3.041,1.805-3.434l0.031-0.531
		c0-0.775-0.232-1.348-0.69-1.703c-1.531-1.191-1.821-1.609-1.821-2.627l0.01-0.326c0.097-1.578,0.991-3.338,2.224-4.379
		c0.407-0.344,1.006-0.719,1.726-0.861c0.193,0.396,0.406,0.742,0.625,1.035c0.285,0.381,0.457,0.611,0.569,1.148l0.03,0.141
		c0.183,0.877,0.736,3.527,0.736,4.537l-0.009,0.236c0,0.691,0.467,1.291,1.136,1.461c0.75,0.186,1.34-0.182,1.912-0.539l0.442-0.25
		c0.018-0.01,0.789-0.768,0.789-0.768c0.331-0.785,0.346-1.533,0.346-2.096c0-0.027,0-0.107,0-0.123c0-0.15,0.004-0.393,0.025-0.51
		c0.005-0.004,0.016-0.008,0.016-0.008c0.478-0.236,0.704-0.195,1.115-0.119c1.7,0.312,2.653-0.383,3.291-2.404
		c0.315-0.996,0.443-1.635,0.443-2.203c0-1.498-0.923-2.303-2.091-3.318l-0.064-0.057c-1.244-1.082-1.635-1.787-1.741-2.768
		c0.347-0.123,0.706-0.254,0.706-0.254s0.823-0.326,0.952-0.377c0.409-0.121,0.847-0.17,1.312-0.219
		c0.617-0.064,1.288-0.186,1.943-0.449c0.167,0.051,0.368,0.113,0.368,0.113c0.853,0.035,1.593-0.439,1.983-1.139
		c0.545,0.145,0.788,0.32,0.828,0.383c0,0.002,0.001,0.006,0.001,0.02c0,0.025-0.008,0.078-0.023,0.146
		c-0.013,0.02-0.409,0.592-0.409,0.592c-0.383,0.51-0.86,1.141-1.084,1.912c-0.214,0.732-0.301,1.32-0.301,1.842
		c0,0.85,0.23,1.529,0.521,2.391l0.092,0.27c0,0.002,0.21,1.189,0.21,1.189c0.133,1.006,0.284,2.145,0.874,2.996
		c1.084,1.57,2.86,1.475,4.156,1.402l0.385-0.02c0.234-0.012,0.444-0.092,0.637-0.197c0.104,0.281,1.042,2.82,1.042,2.82
		c0.173,0.469,0.553,0.805,1.043,0.926c2.009,0.498,3.078-1.002,3.652-1.809l0.358-0.48c1.431-1.738,1.546-2.281,1.848-4.562
		l0.019-0.145l0.156-0.973c0.182-1.043,0.39-2.238,0.206-3.545c-0.388-2.756-1.833-3.607-3.229-4.432l-0.494-0.295
		c-0.419-0.25-0.93-0.285-1.368-0.096c-0.444,0.189-0.771,0.584-0.875,1.051l-0.157,0.707c-0.621,2.924-1.107,3.879-1.37,4.195
		c-0.027-0.018-0.036-0.025-0.054-0.039c-0.03-0.088-0.091-0.338-0.091-0.924l0.207-3.738c0-0.914-0.097-2.066-0.849-2.873
		c-0.157-0.17-0.344-0.305-0.549-0.418c-0.057-0.291-0.115-0.592-0.115-0.592c0-0.002-0.107-0.441-0.111-0.455
		c0.005-0.012,0.04-0.074,0.04-0.074c0.294-0.443,1.719-1.193,2.979-1.613c0.485,0.271,1.004,0.463,1.316,0.564
		c0.1,0.049,0.694,0.34,0.73,0.357c0.018,0.029,0.319,0.559,0.319,0.559l0.505,1.039c0.762,1.623,1.633,3.48,3.962,4.451
		c2.809,1.168,5.032-0.107,6.461-1.168c1.061-0.787,1.423-0.934,1.539-0.916c0.237,0.033,0.9,0.664,1.542,1.273
		c0.544,0.518,1.161,0.867,1.705,1.178l1.053,0.652c0,0,0.552,0.15,0.699,0.191c0.062,0.111,0.18,0.32,0.18,0.32l0.544,0.871
		l0.069,0.076c1.023,1.131,2.32,2.131,4.859,1.793l0.927-0.131c1.094-0.162,2.058-0.268,3.076-0.23
		c0.215,0.9,0.642,1.723,1.038,2.471c0.346,0.652,0.672,1.268,0.761,1.76l0.142,1.246c0.177,2.484,1.409,2.859,4.104,2.742
		c0.506-0.023,0.961-0.295,1.223-0.725c0.594-0.986,0.73-1.93,0.853-2.764c0.099-0.676,0.177-1.209,0.479-1.697l0.324-0.51
		c0.669-1.041,1.43-2.227,1.658-3.924c0.17-1.258,0.011-2.492-0.143-3.684c-0.097-0.744-0.193-1.492-0.193-2.158l0.008-0.488
		c0.035-1.467,0.084-3.486-1.267-4.592c-0.483-0.395-1.326-0.805-2.606-0.514c-0.529,0.119-0.953,0.518-1.109,1.035
		c-0.092,0.311-0.328,0.551-0.773,0.98l-1.006,1.1l-0.039,0.055c-0.843,1.17-1.045,2.279-1.127,3.355
		c-2.327,0.461-5.39,0.334-6.072-0.561c-0.487-0.641-0.477-0.689,0.384-1.732c0.483-0.588,1.081-1.314,1.397-2.27
		c0.336-1.006,0.258-2.094,0.19-3.053c-0.123-1.734,0.013-1.77,0.237-1.826c0.482-0.121,0.557-0.139,1.25,0.875
		c0.594,0.869,1.49,2.182,3.299,2.42l0,0c0.01,0,1.114-0.299,1.114-0.299c0.01-0.008,0.576-1.006,0.576-1.006l0.138-1.938
		c0-0.996-0.209-1.908-0.518-2.791c1.334-0.305,2.694-0.424,4.137-0.291c1.279,0.119,2.804,0.867,4.276,1.59
		c1.167,0.57,2.362,1.156,3.574,1.523c1.198,0.363,12.436,1.568,14.75-1.871c0.297-0.441,0.455-0.953,0.455-1.479
		c0-0.189-0.059-0.393-0.108-0.592c0.507-0.207,1.084-0.459,1.624-0.939c0.539-0.48,0.999-1.092,1.405-1.633
		c0,0,0.82-0.988,0.914-1.102c0.097-0.088,0.515-0.467,0.515-0.467c0.656-0.576,1.008-0.922,1.657-2.352l0.645-1.373
		c0.456-0.955,0.887-1.928,1.28-2.949c0.07-0.004,0.165-0.008,0.165-0.008c0.651-0.035,1.403-0.5,1.511-1.291
		c0.189-1.369,0.469-2.705,0.739-3.996l0.505-2.525c0.098-0.537,0.243-0.674,0.999-1.314c0,0,0.018-0.016,0.034-0.031
		c0.065-0.047,1.225-0.895,1.225-0.895c0.816-0.537,1.709-1.125,2.28-2.773c0.759-2.188,0.872-4.852,0.972-7.199
		c0,0,0.021-0.359,0.042-0.711c0.221-0.201,0.404-0.443,0.529-0.725c0.124-0.283,0.186-0.582,0.186-0.881
		c0-0.27-0.05-0.539-0.15-0.797c0,0-0.154-0.283-0.305-0.559c0.271-1.676,0.752-3.059,1.313-4.629l0.472-1.338l0.953-3.32
		c0.418-1.197,0.896-2.672,1.045-4.232l0.007-0.072l-0.046-1.492c-0.005-0.072-0.062-1.033-0.062-1.033
		c0-0.455,0.071-0.578,0.074-0.582c0.12-0.191,0.241-0.283,0.503-0.471c0.455-0.326,1.079-0.773,1.487-1.811
		c0.271-0.688,0.587-1.906,0.587-3.078c0-1.197-0.332-2.076-0.986-2.613c-0.516-0.42-1.638-0.953-3.382,0.18
		c-0.479,0.311-1.928,2.1-1.942,2.117l-0.108,0.139c0,0-0.238,0.613-0.292,0.75c-0.354,0.02-0.824,0.074-1.288,0.42
		c-0.424,0.318-0.729,0.754-0.998,1.141c-0.137,0.193-0.338,0.469-0.477,0.598c-0.347-0.154-1.038-0.887-1.319-1.6
		c-0.087-0.223-0.13-0.416-0.13-0.607c0-0.402,0.189-0.805,0.542-1.498l0.698-1.57l0.018-0.053c0.255-0.766,0.358-1.502,0.358-2.209
		c0-1.635-0.553-3.118-1.058-4.475c-0.463-1.243-0.899-2.418-0.899-3.602c0-0.007,0-0.014,0-0.021
		c0.011-2.513,0.66-4.395,1.481-6.777l0.415-1.214c0.853-2.541,1.079-5.782,1.181-8.322c0.004-0.096,0.006-0.189,0.006-0.28
		c0-1.729-0.672-2.546-1.216-3.209c-0.266-0.322-0.494-0.601-0.7-1.042c-0.083-0.178-0.135-0.35-0.135-0.55
		c0-0.387,0.195-0.876,0.735-1.709l0.428-0.655c1.281-1.944,2.502-3.797,2.502-6.458c0-0.399-0.028-0.817-0.087-1.256
		c-0.39-2.906-1.549-6.094-3.024-8.32l-0.388-0.574c-0.77-1.128-1.199-1.757-1.199-2.843c0-0.025,0.001-0.05,0.001-0.075
		c0.014-0.752,0.174-1.508,0.344-2.309l0.303-1.601l0.154-0.707c0.118-0.466,0.266-1.053,0.266-1.718
		c0-0.438-0.063-0.908-0.243-1.401c-0.309-0.852-0.909-1.505-1.44-2.082c-0.398-0.433-0.811-0.88-0.945-1.269
		c-0.053-0.15-0.087-0.324-0.113-0.495c0.324-0.393,0.522-0.878,0.522-1.39c0-0.27-0.05-0.543-0.156-0.808
		c-0.1-0.247-0.247-0.466-0.423-0.658c0.009-0.375,0.021-0.968,0.021-0.968c-0.024-2.117-0.754-4.043-2.166-5.765l-0.025-0.03
		l-1.42-1.51c-0.853-0.839-1.445-1.422-1.948-2.543l-0.263-0.587c-0.797-1.785-1.482-3.32-2.604-5.054
		c-0.592-0.913-1.265-1.727-1.915-2.513l-1.349-1.704c-0.307-0.423-0.337-0.857-0.367-1.648c-0.027-0.728-0.062-1.623-0.494-2.583
		c-0.531-1.181-1.615-1.916-2.571-2.564c-0.556-0.377-1.126-0.764-1.408-1.129c0,0-0.05-0.072-0.075-0.107
		c-0.003-0.032-0.011-0.123-0.011-0.123l-0.011-0.07l-0.175-0.945l-0.022-0.07c-0.612-1.922-1.87-2.918-2.88-3.718
		c-0.577-0.457-1.12-0.887-1.577-1.469c-0.877-1.117-1.679-2.566-2.384-4.307c0-0.002-0.675-1.829-0.675-1.829l-0.986-2.567
		c-0.917-2.036-2.198-3.046-3.437-4.023l-1.463-1.225c-0.654-0.613-0.909-1.404-1.262-2.5l-0.412-1.203
		c-0.619-1.619-1.413-3.034-2.668-4.771c-1.742-2.412-3.059-4.814-4.453-7.359l-0.402-0.732c-0.527-0.959-0.941-2.128-1.381-3.365
		c-0.795-2.243-1.617-4.56-3.294-6.191l-0.512-0.502C129.227,11.21,126.273,8.309,122.286,8.75z"/>
	<path fill="#FFFFFF" stroke="#D1D3D4" stroke-width="0.684" d="M224.936,101.125l0.296-0.038l-0.487,0.069
		c-1.098,0.19-2.354,0.407-2.968,1.562c-0.202,0.381-0.304,0.777-0.304,1.179c0,0.455,0.159,1.089,0.732,1.729
		c-0.006,0.067,0.054,0.354,0.068,0.479c-0.255,0.189-0.5,0.404-0.739,0.649c0,0-1.469,1.498-1.522,2.993
		c-0.001,0.016-0.003,0.124-0.003,0.124c0,1.321,0.778,2.129,1.151,2.518l1.06,0.952l0.534,0.438c0,0,1.922,1.157,2.695,1.292
		c0.673,0.119,1.232-0.005,1.647-0.167c0.133,0.083,0.24,0.15,0.24,0.15c0.676,0.209,1.36,0.1,1.973-0.229
		c0.411,0.074,0.858,0.122,1.399-0.069c0.521-0.184,0.837-0.486,1.41-1.035l0.702-0.638l-0.091,0.074
		c0.733-0.542,1.048-1.311,1.256-1.818c0,0,0.146-0.32,0.153-0.339c0.821-1.399,1.251-2.794,1.251-4.037
		c0-0.656-0.117-1.269-0.356-1.818c-0.463-1.067-1.382-1.821-2.523-2.11c-0.131-0.065-0.271-0.127-0.421-0.192
		c0,0-0.491-0.237-0.577-0.278c-0.038-0.037-0.16-0.154-0.16-0.154l-0.06-0.049l-0.959-0.747l-0.091-0.048
		C228.726,100.763,226.89,100.611,224.936,101.125z"/>
	<path fill="#FFFFFF" stroke="#D1D3D4" stroke-width="0.684" d="M246.098,106.389L246.098,106.389
		c-2.059,0.569-2.393,2.332-2.519,2.996c-0.001,0.004-0.022,0.106-0.041,0.188c-0.047,0.053-0.098,0.108-0.1,0.109
		c-0.468,0.42-0.96,1.047-0.96,2.22l0.015,0.51c0.01,0.503,0.028,1.463,0.779,2.404c0.001,0,0.445,0.42,0.445,0.42
		c0.001,0,0.222,0.157,0.276,0.195c0.39,0.446,0.824,0.772,1.321,0.898c0.537,0.136,1.366,0.165,2.272-0.468l-0.011-0.015
		c0.084-0.065,0.701-0.542,0.701-0.542s0.021-0.02,0.028-0.027c0.543-0.146,0.979-0.566,1.099-0.692l0.52-0.542
		c0.432-0.403,1.402-1.315,1.402-2.72c0-0.312-0.048-0.646-0.159-1.006l-0.042-0.134l-0.655-1.091c0,0-0.087-0.119-0.144-0.198
		c-0.003-0.009-0.01-0.037-0.01-0.037c-0.094-0.41-0.305-1.333-1.145-1.965C248.203,106.163,246.949,106.154,246.098,106.389z"/>
</g>
<path fill="#00B9F2" d="M49.578,296.881c-0.229,0.6-0.728,1.141-1.255,1.711c-0.504,0.545-1.025,1.107-1.385,1.801l-0.39,1.014
	c-0.125,0.412-0.195,0.619-0.407,0.842c-0.468,0.486-1.162,0.75-1.896,1.029l-0.604,0.236l-1.613,0.861
	c-0.799,0.484-1.49,0.902-2.354,0.986c-0.001,0-1.488,0.127-1.488,0.127c-1.808,0.139-3.677,0.285-5.458,0.912l-1.264,0.477
	c-1.174,0.453-2.282,0.885-3.468,0.994c-1.841,0.17-3.633,0.041-5.53-0.094l-0.822-0.059l-0.614,0.033c0,0-0.113,0.008-0.2,0.016
	c-0.18-0.1-0.733-0.404-0.733-0.404c0.002,0,0.146,0.043,0.146,0.043c-0.338-0.199-0.836-0.402-1.566-0.049
	c-0.596,0.289-0.899,0.924-1.167,1.482c0,0-0.294,0.547-0.303,0.564c-0.175,0.152-0.372,0.191-0.746,0.188
	c-0.12-0.383-0.333-0.723-0.858-1.107c-0.49-0.359-0.964-0.529-1.345-0.666c-0.479-0.172-0.77-0.275-1.093-0.701l-0.273-0.348
	c-0.3-0.381-1.144-1.461-1.263-1.961c0.243-0.473,0.389-0.98,0.5-1.441c0.101-0.416,0.205-0.846,0.355-1.045
	c0.094-0.121,0.269-0.174,0.675-0.275l0.721-0.209c1.721-0.643,2.335-1.797,2.877-2.816l0.675-1.143
	c1.293-1.832,2.949-3.051,5.21-3.836l0.638-0.225c1.901-0.666,3.696-1.297,5.611-1.492c2.013-0.205,4.478-1.371,6.19-2.314
	c1.107-0.609,2.553-0.592,4.084-0.574l1.612-0.008l0.823-0.045l1.344-0.057l0.402-0.006c0.428-0.01,0.831-0.02,1.15,0.061
	c0,0,0.04,0.014,0.053,0.018c0.06,0.16,0.145,0.33,0.297,0.508c0.576,0.676,1.242,0.867,1.778,1.02
	c0.312,0.09,0.558,0.16,0.772,0.314c0.888,0.643,1.205,1.045,1.306,1.658c0.11,0.662,0.352,1.244,0.566,1.76
	c0.261,0.629,0.439,1.09,0.439,1.549C49.708,296.428,49.668,296.645,49.578,296.881z"/>
<path fill="#BACDEA" d="M69.453,20.219c1.3-0.605,2.363-0.624,3.99-0.605c2.342,0.027,4.779,0.53,7.134,1.017
	c1.929,0.398,3.924,0.811,5.869,0.963c2.319,0.182,4.519-0.045,6.646-0.263l2.442-0.229l2.615-0.115
	c1.942-0.053,3.776-0.104,5.726-0.635c2.897-0.791,4.964-1.429,7.205-3.018c0.548-0.389,0.948-0.817,1.336-1.231l0.747-0.753
	c0.916-0.822,1.754-1.201,2.643-1.602l1.087-0.514c0.671-0.345,0.903-0.839,1.108-1.274c0.192-0.407,0.357-0.759,0.887-1.011
	c0.643-0.306,1.524-0.311,2.376-0.314l1.229-0.046c3.114-0.346,5.611,2.108,7.814,4.272l0.518,0.507
	c1.367,1.33,2.117,3.44,2.84,5.481c0.444,1.253,0.904,2.549,1.503,3.639l0.401,0.732c1.423,2.596,2.767,5.049,4.575,7.553
	c1.156,1.603,1.883,2.892,2.428,4.312l0.392,1.145c0.388,1.206,0.755,2.345,1.808,3.327l1.531,1.284
	c1.162,0.917,2.167,1.709,2.871,3.271l0.96,2.498l0.699,1.892c0.77,1.901,1.659,3.501,2.643,4.754
	c0.594,0.756,1.249,1.275,1.883,1.777c0.98,0.776,1.825,1.447,2.268,2.831c0,0,0.131,0.715,0.131,0.715
	c0.023,0.325,0.046,0.631,0.461,1.169c0.464,0.6,1.16,1.072,1.834,1.529c0.825,0.561,1.606,1.089,1.923,1.794
	c0.286,0.634,0.309,1.246,0.333,1.893c0.032,0.868,0.065,1.765,0.748,2.704l1.391,1.757c0.618,0.748,1.258,1.521,1.786,2.339
	c1.047,1.617,1.706,3.094,2.47,4.805l0.264,0.59c0.646,1.438,1.452,2.231,2.308,3.071l1.343,1.428
	c1.14,1.388,1.729,2.927,1.748,4.574l-0.028,1.267c-0.003,0.067-0.005,0.136-0.008,0.204c-0.043,0.011-0.087,0.021-0.129,0.038
	c-0.96,0.385-1.644,1.178-2.247,1.878c-0.392,0.455-0.763,0.886-1.156,1.159c-0.469,0.327-0.977,0.834-1.514,1.371
	c-0.521,0.521-1.395,1.395-1.748,1.496c-0.365,0.104-0.854-0.136-1.371-0.39l-0.225-0.109l-0.9-0.599c0,0-0.216-0.152-0.414-0.291
	c-0.065-0.308-0.25-0.957-1.015-1.177c-1.688-0.488-2.634,0.626-3.199,1.291c-0.195,0.23-0.439,0.518-0.584,0.575
	c-0.505,0.199-0.666,0.096-1.145-0.208c-0.331-0.21-0.742-0.472-1.291-0.581c-0.777-0.154-1.707-0.098-2.527-0.047l-0.657,0.035
	c-0.877,0.037-1.786,0.09-2.429,0.307c-0.799,0.27-1.001,0.894-1.062,1.308c-0.606,0.077-1.688,0.088-2.028-0.028
	c-0.266-0.13-0.39-0.281-0.571-0.509c-0.347-0.437-0.873-1.097-2.205-1.038c-0.738,0.033-1.321,0.508-1.748,0.855l-0.362,0.274
	c-1.618,0.741-3.83,0.724-5.969,0.708l-0.397-0.002c-0.55-1.017-1.574-1.82-3.021-2.311l-1.357-0.365
	c-6.569-1.662-7.903-2.642-8.103-3.091c0.043-0.122,0.082-0.245,0.082-0.366c0-0.268-0.109-0.521-0.333-0.709l-1.299-1.09
	l-1.072-0.887c-3.198-2.925-5.21-2.947-8.79-1.872l-1.126,0.39c-0.967,0.355-1.966,0.723-2.771,0.585
	c-0.656-0.112-1.193-0.525-1.815-1.002c-0.817-0.626-1.741-1.337-3.086-1.42c-3.083-0.191-3.334,2.121-3.469,3.362
	c-0.105,0.971-0.196,1.582-0.704,1.877c-0.372,0.217-1.194,0.014-1.855-0.148l-1.225-0.242c-0.85-0.08-1.7-0.045-2.49,0.025
	c0.109-0.231,0.222-0.462,0.339-0.694c0.311-0.617,0.632-1.256,0.877-2.011c0.418-1.29,0.257-2.758,0.114-4.054l-0.107-1.132
	c-0.092-1.507,0.144-2.348,1.051-3.751c1.151-1.78,1.266-2.692,0.612-4.877c-0.587-1.965-0.529-3.23,0.187-4.104
	c0.303-0.37,0.619-0.604,0.896-0.811c0.421-0.312,0.944-0.701,1.015-1.418c0.074-0.739-0.373-1.394-1.168-2.274
	c-1.449-1.605-3.085-1.792-4.528-1.958c-0.823-0.095-1.601-0.184-2.334-0.523c-0.386-0.179-0.74-0.551-1.114-0.944
	c-0.396-0.416-0.803-0.844-1.341-1.166c-1.209-0.723-2.37-0.76-3.495-0.757c0.045-0.392,0.068-0.751,0.068-1.077
	c0-1.78-0.634-2.674-1.522-3.683l-0.332-0.384c-0.18-0.215-0.258-0.471-0.258-0.765c0-0.656,0.386-1.506,0.896-2.538l0.145-0.294
	c0.889-1.818,1.716-3.03,3.164-4.634c0.839-0.929,1.261-1.856,1.261-2.765c0-0.259-0.034-0.516-0.103-0.771
	c-0.606-2.256-3.712-3.269-4.759-3.606c-0.586-0.735-1.304-1.319-2.026-1.855c-0.753-0.559-1.464-1.086-1.908-1.757
	c-0.128-0.195-0.242-0.959-0.316-1.465c-0.209-1.415-0.468-3.177-1.877-3.693c-1.053-0.386-2.167,0.2-3.245,0.767
	c-0.815,0.428-1.71,0.881-2.26,0.75c0-0.014-0.003-0.02-0.003-0.035c0-0.383,0.091-1.039,0.156-1.506
	c0.096-0.682,0.189-1.348,0.189-1.947c0-0.821-0.176-1.516-0.762-1.95c-0.566-0.418-1.301-0.422-2.183-0.011
	c-0.108,0.051-0.207,0.12-0.291,0.205c-0.585,0.585-1.434,1.258-2.156,1.142c-1.114-0.178-2.095-2.117-2.812-3.533l-0.362-0.696
	C66.136,21.636,67.792,20.991,69.453,20.219z"/>
<path fill="#C7EAFB" d="M102.162,121.824c0.234,0.392,0.348,0.604,0.348,0.803c0,0.051-0.007,0.101-0.022,0.152
	c-0.117,0.411-0.626,0.542-1.8,0.696c-0.971,0.128-1.975,0.26-2.627,1.001c-0.478,0.543-0.726,1.273-0.726,2.042
	c0,0.472,0.093,0.958,0.284,1.426c0.342,0.839,0.94,1.45,1.668,1.749c0.11,0.544,0.266,1.057,0.439,1.51
	c0.23,0.601,0.428,1.121,0.428,1.657c0,0.006,0,0.013,0,0.019c-0.005,0.592-0.253,1.197-0.516,1.838
	c-0.24,0.585-0.488,1.189-0.606,1.879l-0.172,0.961c-0.296,1.627-0.65,3.573-0.65,5.329c0,0.437,0.022,0.861,0.071,1.267
	c0.042,0.331,0.241,0.622,0.537,0.78c1.166,0.621,2.5,0.896,3.789,1.163c2.699,0.558,4.235,0.979,4.433,3.129
	c0.024,0.259,0.036,0.499,0.036,0.722c0,1.775-0.731,2.535-1.857,3.707c-0.505,0.523-1.078,1.119-1.648,1.879l-0.95,1.412
	c-0.417,0.658-0.811,1.279-1.319,1.842c-1.051,1.166-1.515,1.25-2.892,1.5l-0.97,0.186l-1.234,0.334
	c-0.981,0.299-1.826,0.555-2.786,0.281c-1.357-0.391-3.922-2.043-4.159-2.68c-0.144-0.443-0.187-0.881-0.232-1.346
	c-0.071-0.715-0.151-1.525-0.601-2.449l-0.64-1.509c-0.566-1.423-1.207-3.034-2.389-4.114c-0.633-0.58-1.33-0.932-1.944-1.243
	c-1.085-0.549-1.663-0.882-1.944-1.888c-0.084-0.303-0.127-0.519-0.127-0.696c0-0.345,0.163-0.548,0.503-0.976l0.566-0.758
	c1.332-1.986,1.828-3.595,1.828-4.891c0-1.672-0.827-2.821-1.758-3.584c-1.03-0.845-2.4-1.432-3.61-1.95l-1.755-0.764
	c-1.275-0.544-1.275-0.544-1.499-1.891c-0.447-2.695-1.314-4.858-2.993-7.466c-0.649-1.007-1.003-1.603-1.003-2.464
	c0-0.223,0.023-0.464,0.072-0.734c0.076-0.421,0.132-0.666,0.176-0.792c0.081-0.029,0.177-0.065,0.177-0.065l0.977-0.382
	l1.258-0.489c1.628-0.586,4.179-1.505,4.179-3.929c0-0.459-0.091-0.972-0.297-1.546c-0.385-1.073-1.3-1.772-2.037-2.334
	l-0.603-0.479c-0.3-0.262-0.527-0.564-0.768-0.883l-0.603-0.74c-0.438-0.463-0.639-0.675-0.639-1.008
	c0-0.183,0.063-0.406,0.179-0.725c0.204-0.081,0.553-0.225,0.878-0.623c0.505-0.621,0.841-1.188,1.167-1.738l0.659-1.055
	c1.01-1.479,2.814-3.498,4.575-4.324c0.672-0.315,1.162-0.351,1.904-0.405l1.154-0.111c1.834-0.248,2.378-0.9,3.114-1.943
	l0.537-0.728c1.672-2.11,2.905-3.532,4.947-4.165c0.167,0.146,0.394,0.231,0.655,0.248c0.383,0.024,0.723-0.23,0.912-0.571
	c0.919-0.124,2.013-0.227,3.055-0.129l0.927,0.191c1.02,0.251,2.291,0.564,3.38-0.071c1.429-0.833,1.591-2.333,1.71-3.429
	c0.154-1.423,0.216-1.603,1.302-1.536c0.719,0.045,1.296,0.488,1.964,1c0.732,0.562,1.562,1.199,2.717,1.397
	c1.346,0.231,2.664-0.254,3.827-0.682l1.008-0.35c3.164-0.95,4.296-0.882,6.815,1.421l1.185,0.984c0,0,0.436,0.364,0.779,0.651
	c0.011,0.264,0.062,0.528,0.183,0.78c0.834,1.72,4.238,2.884,9.46,4.205l1.2,0.318c1.853,0.628,2.102,1.615,2.102,2.198
	c0,0.137-0.014,0.252-0.023,0.335c-0.093,0.769-0.104,0.774-0.762,1.072l-1.164,0.61c-1.546,0.979-2.709,2.823-3.736,4.45
	l-1.312,1.959c-0.535,0.694-0.934,1.389-1.286,2.002c-0.909,1.582-1.409,2.454-3.356,2.496c-0.001,0-0.521,0.025-0.521,0.025
	c-0.321,0.019-0.969,0.057-1.174-0.037c-0.017-0.046-0.144-0.379-0.144-0.379c-0.159-0.493-0.399-1.239-1.181-1.662
	c-1.638-0.883-3.214,0.05-4.258,0.667l-0.5,0.288c-1.058,0.568-2.168,0.667-3.344,0.772c-1.638,0.146-3.494,0.312-5.186,1.862
	c-0.798,0.731-1.177,1.747-1.545,2.729c-0.517,1.379-0.882,2.238-1.854,2.504c-0.318,0.087-0.434,0.056-0.593,0.012
	c-1.144-0.31-1.639,0.421-2.049,1.197c-0.242,0.458-0.334,0.878-0.334,1.26C101.53,120.767,101.893,121.372,102.162,121.824z"/>
<path d="M122.956,89.958c0-0.15,0.035-0.305,0.102-0.456c-0.066,0.149-0.073,0.308-0.1,0.463
	C122.958,89.963,122.956,89.961,122.956,89.958z"/>
<path fill="#7DA7D9" d="M45.632,98.055c-0.173-0.543-0.179-1.26-0.183-1.953l-0.099-1.617l-0.296-0.671
	c-0.172-0.276-0.259-0.414-0.104-0.763c0.034-0.075,0.045-0.104,0.393-0.06c0.278,0.035,0.699,0.088,0.946-0.286
	c0.721-1.09,0.429-1.874,0.189-2.244c-0.451-0.699-1.436-1.079-2.396-0.925c-0.887,0.143-1.554,0.727-1.857,1.559
	c-0.76,0.13-1.387,0.008-1.682-0.361c-0.127-0.158-0.19-0.354-0.19-0.576c0-0.216,0.06-0.458,0.18-0.714l0.432-0.663
	c0.494-0.704,1.086-1.546,1.086-2.223c0-0.167-0.036-0.324-0.118-0.466c-0.172-0.297-0.535-0.439-1.032-0.48
	c0.296-0.342,0.769-0.76,1.05-0.823c0.609-0.136,0.84,0.017,1.222,0.269c0.321,0.212,0.72,0.477,1.406,0.577
	c0.707,0.105,1.278-0.025,1.696-0.385c0.842-0.726,0.844-2.199,0.846-3.382l0.003-0.458c0.001-0.099-0.042-0.195-0.116-0.261
	c-0.074-0.065-0.173-0.097-0.271-0.084c-0.879,0.117-1.122-0.209-1.524-0.749c-0.226-0.304-0.482-0.648-0.889-0.942
	c-0.36-0.261-0.685-0.281-0.923-0.296c-0.28-0.018-0.396-0.025-0.59-0.41c-0.035-0.075,0.004-0.36,0.025-0.512l0.024-0.682
	c-0.393-1.965-1.593-2.852-2.754-3.709c-0.922-0.682-1.793-1.325-2.237-2.5c-0.414-1.093-0.795-2.784-0.989-3.974
	c-0.072-0.439-0.06-0.937-0.046-1.464c0.016-0.675,0.033-1.373-0.139-1.978c-0.342-1.205-2.563-3.259-3.89-3.009
	c-0.455,0.086-0.963,0.44-0.963,1.593c0,0.033,0.004,0.072,0.005,0.105c-0.258,0.019-0.542,0.04-0.542,0.04
	c-1.584,0.135-4.237,0.36-4.814-0.796c-0.094-0.189-0.136-0.356-0.136-0.516c0-0.362,0.216-0.684,0.536-1.125
	c0.332-0.456,0.723-0.996,0.723-1.704c0-0.236-0.043-0.491-0.147-0.768c-0.247-0.658-0.628-1.102-0.963-1.494
	c-0.455-0.531-0.834-0.974-0.834-1.851c0-0.24,0.029-0.512,0.092-0.828c0.088-0.441,0.273-0.867,0.468-1.318
	c0.287-0.661,0.582-1.341,0.582-2.11c0-0.095-0.018-0.195-0.027-0.292c1.397-0.751,2.148-0.128,2.998,0.616
	c0.676,0.594,1.444,1.267,2.546,1c0.127-0.03,0.226-0.131,0.254-0.26c0.06-0.273,0.085-0.531,0.085-0.774
	c0-1.064-0.507-1.855-0.964-2.567c-0.425-0.662-0.804-1.252-0.804-2.006c0-0.106,0.027-0.224,0.042-0.337
	c0.408-0.013,1.753-0.054,1.753-0.054c2.238-0.003,3.855-0.005,4.855-3.103l0.854-2.562c2.32-4.364,7.232-6.834,11.566-9.013
	l0.519-0.261c1.106-0.558,2.44-0.979,3.731-1.386c1.797-0.568,3.656-1.155,5.052-2.143c0.811-0.573,1.501-1.358,2.168-2.118
	c0.498-0.567,0.983-1.115,1.503-1.576l0.293,0.564c0.966,1.912,2.169,4.29,4.318,4.633c1.182,0.189,2.412-0.325,3.663-1.481
	c0,0.014,0.003,0.018,0.003,0.031c0,0.486-0.105,1.239-0.17,1.7c-0.089,0.638-0.174,1.239-0.174,1.77
	c0,0.751,0.17,1.359,0.732,1.724c1.518,0.985,3.191,0.105,4.535-0.602c0.492-0.259,1.309-0.688,1.581-0.655
	c0.279,0.185,0.474,1.5,0.557,2.064c0.13,0.885,0.253,1.722,0.633,2.297c0.642,0.973,1.535,1.634,2.397,2.274
	c0.724,0.538,1.409,1.045,1.829,1.667c0,0.001,0.771,0.487,0.771,0.487c2.704,0.872,3.308,1.748,3.426,2.192
	c0.02,0.073,0.029,0.148,0.029,0.227c0,0.395-0.244,0.866-0.729,1.403c-1.57,1.739-2.514,3.124-3.483,5.107l-0.141,0.286
	c-0.498,1.008-1.113,2.253-1.113,3.483c0,0.703,0.201,1.4,0.739,2.045l0.366,0.423c0.605,0.688,1.018,1.157,1.018,2.333
	c0,0.487-0.071,1.094-0.228,1.888c-0.014,0.072-0.021,0.146-0.021,0.218c0,0.227,0.07,0.448,0.216,0.627
	c0.192,0.237,0.464,0.375,0.77,0.379l1.042,0.012c1.032-0.004,1.848-0.008,2.641,0.466c0.297,0.178,0.593,0.489,0.907,0.819
	c0.467,0.492,0.998,1.049,1.741,1.393c1.032,0.477,2.056,0.595,2.959,0.698c1.291,0.148,2.309,0.265,3.24,1.295
	c0.264,0.292,0.418,0.487,0.515,0.621c-0.021,0.016-0.062,0.049-0.062,0.049c-0.336,0.25-0.797,0.591-1.261,1.158
	c-0.79,0.963-1.05,2.068-1.05,3.142c0,1.031,0.241,2.033,0.485,2.85c0.206,0.689,0.319,1.135,0.319,1.517
	c0,0.521-0.212,0.922-0.689,1.66c-1.007,1.559-1.399,2.72-1.399,4.304c0,0.22,0.008,0.447,0.023,0.686l0.115,1.232
	c0.068,0.614,0.14,1.274,0.14,1.89c0,0.478-0.043,0.927-0.167,1.308c-0.196,0.605-0.469,1.147-0.757,1.72
	c-0.303,0.603-0.606,1.231-0.847,1.961c-3.149,0.75-4.801,2.825-6.538,5.016l-0.606,0.819c-0.557,0.788-0.672,0.952-1.713,1.093
	l-1.027,0.098c-0.829,0.06-1.611,0.117-2.628,0.594c-2.133,1-4.187,3.251-5.398,5.024l-0.729,1.167
	c-0.313,0.526-0.583,0.981-0.99,1.481c-0.02,0.008-0.068,0.028-0.068,0.028c-0.424,0.166-0.85,0.42-1.123,1.125
	c-0.725-0.003-1.365-0.042-1.989-0.461c-0.535-0.358-0.736-0.805-0.99-1.37c-0.343-0.76-0.77-1.707-2.043-2.306
	c-2.501-1.177-3.762,0.118-4.595,0.976c-0.51,0.525-0.849,0.852-1.341,0.948c-0.394,0.078-0.737-0.027-1.311-0.219
	c-0.533-0.178-1.137-0.38-1.882-0.368c-0.81,0.013-2.198,0.394-2.938,0.728l-0.859,0.411c-1.344,0.662-2.155,1.062-3.459,0.451
	c-0.042-0.02-0.087-0.032-0.131-0.046c-0.288-1.197-1.448-2.396-2.583-3.565C46.813,99.791,45.88,98.831,45.632,98.055z"/>
<path fill="#C7EAFB" d="M34.96,156.078l-0.144-0.133l-1.201-0.875c-0.648-0.409-1.16-0.732-1.367-1.452
	c-0.077-0.267,0.019-0.909,0.089-1.38l0.098-0.816c0.062-1.625-0.069-3.221-0.195-4.766l-0.146-1.964l-0.063-1.645
	c-0.04-1.446-0.077-2.812-0.492-4.292c-0.438-1.56-0.472-2.755-0.472-4.275l0.042-1.247c0.047-0.958,0.096-1.947-0.079-2.862
	c-0.188-0.983-0.658-1.692-1.112-2.378c-0.447-0.675-0.871-1.314-1.041-2.207l-0.095-0.659c-0.114-0.912-0.243-1.944-0.982-2.392
	c-0.447-0.271-1.019-0.27-1.747,0.003c-1.26,0.471-1.21,1.502-1.162,2.5l0.02,0.607c0.004,1.593,0.027,3.149,0.251,4.686
	l0.022,0.154c0.101,0.703,0.227,1.578,0.516,2.238c0.102,0.235,0.325,0.413,0.541,0.586c0.138,0.11,0.347,0.277,0.373,0.37
	c0.217,0.74-0.04,1.47-0.785,2.229c-0.496,0.505-0.827,0.733-1.042,0.716c-0.26-0.02-0.593-0.415-1.013-1.002
	c-1.038-1.449-1.056-2.696-1.08-4.42l-0.006-0.399c-0.021-1.207-0.275-1.866-0.595-2.702l-0.33-0.899
	c-0.164-0.487-0.217-1.008-0.217-1.556c0-0.497,0.043-1.014,0.089-1.545c0.045-0.535,0.091-1.076,0.091-1.611
	c0-0.971-0.151-1.919-0.734-2.766c-0.594-0.863-1.614-1.655-2.6-2.42l-1.212-0.978c-0.525-0.465-1.015-0.724-1.447-0.951
	c-0.797-0.42-1.279-0.674-1.424-1.97c-0.021-0.186-0.031-0.38-0.031-0.581c0-2.349,1.415-5.569,4.025-6.038
	c0,0,1.422-0.586,1.843-0.76c0.147,0.256,0.23,0.509,0.23,0.762c0,0.348-0.104,0.701-0.217,1.08
	c-0.116,0.395-0.242,0.819-0.242,1.263c0,0.367,0.085,0.749,0.333,1.138c0.241,0.38,0.575,0.612,0.995,0.688
	c0.804,0.147,1.88-0.298,3.291-1.361c1.47-1.108,1.45-1.858,1.412-3.352l-0.01-0.441c-0.019-1.027-0.277-1.489-0.551-1.978
	l-0.459-0.983c-0.314-0.911-0.326-1.585-0.036-2.063c0.504-0.831,1.936-1.045,3.32-1.253l0.591-0.091
	c0.701-0.112,1.206-0.398,1.653-0.65c0.501-0.283,0.935-0.527,1.6-0.554c1.203-0.048,1.472,0.45,1.916,1.274l0.57,0.938
	c1.181,1.598,2.238,1.745,3.576,1.932l1.318,0.222l1.599,0.186c1.025,0.083,2.302,0.186,2.914,0.534
	c0.565,0.321,0.696,0.809,0.848,1.373c0.171,0.634,0.364,1.353,1.245,1.735c0.754,0.329,2.15,0.281,3.111-0.106
	c0.2-0.081,0.368-0.177,0.518-0.282c2.138,0.949,3.724,0.173,5.123-0.517l0.795-0.381c0.562-0.253,1.675-0.54,2.127-0.546
	c0.395-0.006,0.768,0.118,1.199,0.262c0.629,0.21,1.411,0.472,2.356,0.286c1.146-0.225,1.85-0.949,2.417-1.531
	c0.782-0.803,1.074-1.104,2.251-0.549c0.562,0.265,0.736,0.606,1.045,1.292c0.311,0.689,0.697,1.546,1.719,2.231
	c1.009,0.676,2.007,0.786,2.869,0.804c0.146,0.737,0.586,1.291,1.13,1.866c-0.002-0.002,0.456,0.566,0.456,0.566
	c0.279,0.371,0.596,0.791,1.055,1.193c0.001,0,0.709,0.566,0.709,0.566c0.576,0.439,1.171,0.894,1.351,1.396
	c0.524,1.46-0.128,1.944-2.646,2.851l-2.2,0.859c-1.188,0.405-1.432,0.883-1.711,2.436c-0.389,2.165,0.395,3.383,1.225,4.673
	c1.537,2.386,2.292,4.262,2.694,6.691c0.388,2.345,0.963,2.694,2.719,3.443l1.751,0.763c1.137,0.487,2.312,0.991,3.117,1.65
	c0.539,0.442,2.18,1.788-0.474,5.747l-0.465,0.62c-0.628,0.787-1.278,1.602-0.748,3.501c0.536,1.925,1.898,2.614,2.992,3.169
	c0.545,0.275,1.06,0.536,1.486,0.926c0.833,0.762,1.358,2.082,1.866,3.359l0.702,1.65c0.289,0.592,0.342,1.129,0.403,1.75
	c0.052,0.527,0.111,1.123,0.324,1.779c0.068,0.209,0.182,0.42,0.328,0.629c-0.087,0.16-0.137,0.342-0.137,0.529
	c0,0.016,0.001,0.033,0.002,0.049c-0.236-0.062-0.497-0.145-0.684-0.209c-0.619-0.213-1.155-0.398-1.672-0.316
	c-0.835,0.133-1.517,0.537-1.972,1.164c-0.402,0.557-0.603,1.279-0.62,2.109c-0.682,0.064-1.754,0.152-2.123,0.002
	c-0.145-0.059-0.351-0.33-0.533-0.568c-0.295-0.389-0.662-0.871-1.234-1.152c-0.536-0.264-1.15-0.285-1.691-0.303l-0.681-0.051
	c-1.8-0.379-1.815-1.139-1.588-3.713l0.061-0.721c0.04-0.463-0.237-0.887-0.673-1.045c-2.577-0.934-3.57,0.107-4.446,1.025
	l-0.89,0.836c-1.427,1.098-3.417,1.533-5.197,1.137c-1.427-0.316-3.255-0.98-3.832-1.584c-0.17-0.178-0.237-0.447-0.332-0.871
	c-0.098-0.439-0.209-0.938-0.536-1.402c-2.096-2.983-5.285-2.029-6.817-1.571c-2.226,0.665-2.661,1.325-3.296,2.532l-0.602,1.055
	c-0.502,0.785-1.843,2.215-2.594,2.504c-0.159,0.062-0.333,0.061-0.625,0.051c-0.46-0.014-1.09-0.031-1.744,0.385
	c-0.591,0.377-0.872,0.898-1.077,1.277l-0.265,0.416c-0.739,0.67-2.589,1.385-3.07,1.197c-0.004-0.018-0.008-0.035-0.008-0.035
	c-0.083-0.357-0.35-0.645-0.677-0.768C38.444,159.285,36.517,157.51,34.96,156.078z"/>
<path fill="#8ED8F8" d="M30.254,193.221c0.434-0.34,1.445-0.613,2.516-0.902c2.024-0.547,4.506-1.217,4.506-2.873
	c0-0.137-0.017-0.279-0.052-0.43c-0.029-0.127-0.096-0.217-0.223-0.246l-1.765-0.406c-2.008-0.406-5.746-1.162-6.127-2.377
	c-0.012-0.037-0.032-0.1-0.032-0.189c0-0.18,0.08-0.465,0.463-0.867c0.604-0.633,1.521-0.904,2.492-1.191
	c1.412-0.42,2.873-0.852,3.442-2.463c0.256-0.727,0.268-1.205,0.277-1.555c0.012-0.516,0.019-0.775,0.944-1.566
	c0.645-0.551,1.135-0.729,1.754-0.953l0.751-0.289l0.509-0.205c1.032-0.402,2.445-0.957,2.95-1.729
	c0.234-0.357,0.295-0.854,0.295-1.377c0-0.305-0.021-0.617-0.041-0.916l-0.033-0.783c-0.004-0.109-0.062-0.221-0.152-0.281
	s-0.206-0.086-0.309-0.047c-0.623,0.232-0.821,0.055-1.257-0.332l-0.424-0.357l-1.885-1.691l-0.83-0.777l-0.395-0.352
	c-1.441-1.271-2.672-2.512-1.919-3.688c0.321-0.502,0.665-0.672,1.028-0.852c0.078-0.039,0.156-0.078,0.232-0.119
	c0.227,0.439,0.585,0.775,1.076,0.953c1.71,0.619,4.393-0.896,5.172-1.604l0.692-0.961c0.148-0.275,0.239-0.436,0.374-0.521
	c0.112-0.072,0.24-0.074,0.58-0.064c0.367,0.012,0.87,0.027,1.423-0.186c1.375-0.529,3.014-2.42,3.585-3.314l0.688-1.205
	c0.468-0.887,0.564-1.072,2.069-1.521c2.143-0.641,3.503-0.705,4.55,0.785c0.092,0.131,0.151,0.393,0.213,0.672
	c0.117,0.523,0.277,1.24,0.852,1.84c1.254,1.312,4.276,2.037,4.87,2.17c2.393,0.531,4.97-0.033,6.893-1.514l1.124-1.045
	c0.573-0.602,0.837-0.852,1.522-0.723c-0.047,0.533-0.096,1.08-0.096,1.617c0,1.846,0.528,3.562,3.313,4.148l1.035,0.094
	c0.284,0.01,0.713,0.023,0.853,0.092c0.139,0.068,0.335,0.326,0.509,0.555c0.323,0.426,0.727,0.955,1.39,1.225
	c0.813,0.334,1.997,0.252,3.345,0.119l0.691-0.059c0.285-0.025,0.562-0.168,0.738-0.393c0.145-0.186,0.232-0.416,0.232-0.65
	c0-0.049-0.003-0.098-0.012-0.145c-0.039-0.238-0.057-0.465-0.057-0.67c0-0.434,0.083-0.787,0.244-1.01
	c0.081-0.111,0.239-0.258,0.591-0.326c0.056,0.018,0.72,0.215,0.72,0.215c0.911,0.314,2.044,0.707,2.862,0.004
	c0.203-0.174,0.338-0.4,0.433-0.656c1.232,0.848,2.664,1.518,3.411,1.73c1.54,0.441,2.819,0.055,3.946-0.287l1.057-0.289
	l0.919-0.176c0.267-0.049,0.513-0.096,0.753-0.148c0.138,0.758,0.448,1.393,0.719,1.932c0.42,0.84,0.651,1.35,0.506,2.062
	c-0.228,1.129-1.002,1.701-2.248,2.543l-0.374,0.254c-0.792,0.543-1.474,1.182-2.134,1.799c-0.589,0.551-1.145,1.07-1.734,1.484
	l-1.261,0.738c-0.908,0.471-1.765,0.914-2.571,2.568c-0.321,0.658-0.753,1.309-1.21,1.998c-0.53,0.797-1.08,1.623-1.488,2.521
	c-0.45,0.988-0.572,1.951-0.69,2.881c-0.103,0.811-0.2,1.576-0.519,2.271l-0.612,1.096c-0.518,0.84-1.107,1.795-1.065,3.318
	c0.043,1.57,0.82,2.57,1.507,3.453c0.446,0.572,0.831,1.068,1.003,1.678c0.255,0.904,0.241,3.705-0.024,4.611
	c-0.139,0.477-0.45,0.828-0.812,1.236c-0.438,0.494-0.935,1.055-1.183,1.9c-0.199,0.68-0.258,1.379-0.315,2.055l-0.091,0.68
	c-0.144-0.131-0.288-0.264-0.435-0.4c-1.354-1.262-2.889-2.691-5.028-2.611c-1.683,0.062-2.577,1.096-3.23,1.852l-0.706,0.723
	c-1.841,1.387-3.856,1.756-6.163,1.129c-0.196-0.053-0.492-0.25-0.779-0.441c-0.561-0.373-1.258-0.836-2.136-0.904
	c-0.696-0.055-1.209,0.211-1.583,0.404c-0.201,0.104-0.359,0.184-0.506,0.205l-0.708,0.107c-0.959,0.154-3.208,0.512-3.835,0.145
	c-0.755-0.443-1.147-2.311-1.461-3.809c-0.417-1.98-0.81-3.854-2.105-4.666c-0.408-0.256-1.092-0.51-2.039-0.275
	c-0.369,0.092-0.657,0.379-0.749,0.75c-0.375,1.518-0.813,1.684-0.862,1.699c-0.545,0.158-1.872-1.109-2.51-1.717l-0.736-0.682
	c-1.457-1.256-2.686-1.787-3.87-1.674c-1.485,0.143-2.565,1.271-3.511,2.469c-0.383,0.486-0.798,1.182-1.279,1.988
	c-0.75,1.258-1.882,3.156-2.606,3.477c-0.887,0.391-1.702,0.574-2.646,0.787l-1.03,0.24c-0.912,0.227-1.939-0.008-3.027-0.256
	c0,0-0.069-0.014-0.09-0.02c-0.212-0.424-0.513-0.725-0.744-0.938c-0.093-0.086-0.232-0.215-0.26-0.27
	c0-0.01,0.001-0.037,0.001-0.037c0.021-0.199,0.032-0.389,0.032-0.568c0-1.201-0.444-1.971-0.848-2.42
	c-0.588-0.658-1.447-1.062-2.507-1.199C27.378,196.682,29.23,194.025,30.254,193.221z"/>
<path d="M85.972,245.639c0.005-0.049,0.005-0.107,0.007-0.164c0,0.006,0.005,0.008,0.005,0.012
	C85.984,245.535,85.977,245.588,85.972,245.639z"/>
<path fill="#8ED8F8" d="M92.528,229.221c-0.514,0.055-1.095,0.115-1.681,0.293l-1.159,0.459c-0.485,0.219-0.943,0.426-1.556,0.545
	c-0.157,0.031-0.272,0.166-0.277,0.326c-0.084,2.58,0.712,3.742,2.417,5.227l0.064,0.055c1.648,1.436,1.746,1.521,1.098,3.574
	c-0.406,1.287-0.605,1.252-1.194,1.143c-0.523-0.096-1.241-0.229-2.268,0.277c-1.038,0.514-1.071,1.369-1.071,2.141
	c0,0.025,0,0.135,0,0.162c0,0.412-0.025,0.834-0.169,1.246c-0.144,0.061-0.308,0.152-0.538,0.295c0,0-0.122,0.068-0.237,0.133
	c-0.062-1.295-0.529-3.57-0.752-4.639l-0.029-0.139c-0.196-0.939-0.569-1.439-0.899-1.879c-0.319-0.428-0.596-0.795-0.733-1.545
	c-0.027-0.148-0.149-0.262-0.3-0.277c-1.39-0.15-2.769,0.314-3.988,1.344c-1.619,1.367-2.748,3.596-2.876,5.68
	c-0.01,0.152-0.014,0.299-0.014,0.441c0,1.865,0.832,2.748,2.479,4.035c0.021,0.057,0.035,0.148,0.035,0.281
	c0,0.705-0.347,2.305-1.691,2.939c-0.12,0.057-0.196,0.176-0.196,0.307c0,0.008,0.042,0.602,0.042,0.602
	c0.041,0.537,0.087,1.148,0.087,1.727c0,0.482-0.032,0.943-0.125,1.324c-0.053,0.219-0.272,0.357-0.629,0.559
	c-0.318,0.182-0.68,0.385-0.903,0.748l-0.044,0.072c-0.638,1.033-0.736,1.191-1.885,1.35l-0.799,0.148
	c-0.667,0.137-1.472,0.289-2.031,0.164c-0.23-1.111-1.567-2.135-2.334-2.545c-0.908-0.486-1.186-0.611-1.527-0.295
	c-0.058,0.053-0.129,0.119-0.469,0.137l-0.399,0.023c-1.482,0.094-4.241,0.268-4.634-1.387c-0.042-0.176-0.055-0.305-0.055-0.396
	c0-0.137,0.029-0.197,0.048-0.223c0.082-0.109,0.383-0.131,0.65-0.148l0.872-0.154c0.769-0.311,1.169-0.635,1.676-1.043l0.322-0.258
	c1.312-1.037,1.782-1.676,2.537-2.941c0.259,0,1.06,0.002,1.06,0.002c1.7,0.039,3.458,0.08,3.82-2.432
	c0.166-1.152-0.105-2.111-0.369-3.039c-0.212-0.75-0.413-1.457-0.372-2.229c0.005-0.092-0.035-0.18-0.096-0.248
	c-0.061-0.068-0.155-0.107-0.246-0.111L69.941,241c-1.141-0.07-2.435-0.148-3.468,0.238c-0.796,0.299-1.244,0.896-1.677,1.475
	c-0.292,0.391-0.568,0.76-0.939,1.02c-1.022,0.719-2.327,0.586-3.588,0.457c-1.159-0.119-2.357-0.24-3.335,0.307
	c-2.397,1.342-3.467,3.396-3.467,6.662l0.051,1.725c0.097,2.236,0.198,4.549-0.975,6.191c-0.861,1.207-1.839,1.297-3.348,1.303
	l-0.532,0.035c-0.372,0.031-1.144,0.098-1.337-0.004c-0.216-0.115-0.34-0.461-0.462-0.793c-0.122-0.338-0.249-0.686-0.501-0.91
	c-1.987-1.777-5.832,0.432-7.145,1.434c-1.09,0.83-2.233,1.752-3.167,3.074c-0.309,0.436-0.542,1.066-0.788,1.734
	c-0.287,0.773-0.612,1.652-1.002,1.936c-0.782,0.564-3.336,0.273-4.175-0.217c-0.963-0.559-0.98-0.945-1.017-1.791l-0.058-0.816
	l-0.399-2.842l-0.116-0.76c-0.191-1.27-0.71-1.951-1.312-2.738l-0.739-1.029l-0.49-0.848c-0.545-1.006-0.938-1.734-2.78-1.455
	c-1,0.15-2.297,0.605-2.935,1.424c-0.785,1.008-0.696,2.326-0.618,3.492c0.105,1.578,0.109,2.566-1.104,2.971
	c-4.971,1.664-7.885,1.6-8.661-0.189c-0.945-2.18,1.973-4.73,3.715-6.254l0.48-0.424c0.341-0.305,1.005-0.576,1.649-0.842
	c0.928-0.381,1.805-0.742,2.135-1.316c0.373-0.648,0.224-1.922,0.104-2.945l-0.079-0.797l-0.085-0.672
	c-0.098-0.627-0.279-1.791,0.118-1.98c0.553-0.219,3.799,1.689,4.189,2.146c0.138,0.178,0.128,0.297,0.111,0.514
	c-0.027,0.34-0.065,0.803,0.608,1.352c0.654,0.531,1.819,0.629,2.632,0.447c0.724-0.16,1.306-0.609,1.868-1.043l0.821-0.588
	l0.971-0.49c1.352-0.635,3.17-1.49,3.17-3.012c0-0.107-0.009-0.217-0.028-0.33c-0.022-0.143-0.134-0.254-0.275-0.281
	c-0.623-0.113-0.857-0.578-1.189-1.326l-0.133-0.295l-0.323-0.828c-0.316-0.904-0.566-1.619-2.256-2.18
	c-0.682-0.227-1.387-0.287-2.068-0.344c-1.225-0.104-2.284-0.223-3.104-1.184c1.56-2.566,2.397-5.273,2.397-7.699
	c0-1.016-0.144-1.982-0.438-2.865c-0.244-0.732-0.372-1.34-0.372-1.891c0-0.936,0.368-1.713,1.161-2.668
	c0.816-0.986,1.571-2.051,1.571-3.414c0-0.627-0.161-1.318-0.55-2.096c-0.466-0.93-1.144-1.471-1.799-1.994l-0.959-0.842
	c-0.333-0.352-0.583-0.857-0.823-1.346c-0.252-0.51-0.512-1.037-0.884-1.439l-0.968-0.77c-0.53-0.346-0.858-0.561-0.858-1.238
	c0-0.029,0-0.059,0.001-0.09c0.012-0.293,0.556-1.465,0.76-1.904l0.141-0.307c0.606-1.352,1.476-2.404,2.317-3.424
	c1.232-1.49,2.367-2.939,2.608-5.104c0.813,0.008,1.441,0.209,1.764,0.57c0.271,0.303,0.374,0.773,0.306,1.4
	c-0.119,1.086,0.522,1.68,0.906,2.033c0.265,0.246,0.321,0.316,0.333,0.418c0.047,0.438,0.378,0.799,0.807,0.895l0.632,0.141
	c1.274,0.289,2.59,0.59,3.976,0.246l0.988-0.23c1.004-0.227,1.952-0.439,3.022-0.912c1.323-0.584,2.45-2.475,3.54-4.303
	c0.425-0.713,0.827-1.387,1.127-1.768c0.896-1.135,1.523-1.643,2.096-1.697c0.581-0.057,1.345,0.332,2.334,1.184l0.66,0.613
	c1.256,1.199,2.819,2.691,4.5,2.203c0.903-0.264,1.559-1.062,2.019-2.365c0.536,0.395,0.88,2,1.155,3.309
	c0.439,2.09,0.893,4.252,2.431,5.156c1.166,0.684,3.124,0.443,5.198,0.113l0.665-0.102c0.496-0.068,0.868-0.262,1.167-0.416
	c0.262-0.135,0.378-0.189,0.482-0.182c0.345,0.027,0.741,0.289,1.16,0.568c0.422,0.281,0.859,0.57,1.376,0.713
	c2.917,0.793,5.587,0.299,7.934-1.469l1.024-1.021c0.615-0.711,1-1.115,1.755-1.143c1.287-0.049,2.388,0.977,3.553,2.062
	c0.461,0.43,0.943,0.859,1.447,1.25c-0.069,0.965,0.239,1.496,1.104,2.346l0.76,0.779c0.75,0.82,0.828,1.424,0.983,2.625
	l0.108,0.791c0.356,2.352,0.776,2.85,2.328,4.379l0.737,0.725c1.946,1.898,2.602,2.537,2.732,5.203l0.298,1.17
	c0.244,0.674,0.548,1.514,0.491,2.885c-0.005,0.129,0.016,0.252,0.054,0.367C93.697,229.094,93.155,229.154,92.528,229.221z"/>
<path fill="#3A89C9" d="M179.831,192.164c-0.366,1.057-0.83,1.361-1.598,1.869l-1.326,0.971l-0.066,0.055
	c-0.813,0.691-1.401,1.191-1.616,2.373l-0.499,2.5c-0.259,1.236-0.516,2.523-0.71,3.844c-0.195,0.004-0.39,0.008-0.39,0.008
	l-0.473,0.027c-0.14,0.01-0.36,0.094-0.404,0.227c-0.437,1.326-1.019,2.547-1.582,3.729l-0.654,1.396
	c-0.514,1.129-0.688,1.283-1.21,1.74l-0.597,0.541l-1.076,1.293c-0.372,0.494-0.756,1.006-1.154,1.359
	c-0.373,0.332-0.823,0.512-1.3,0.701c-0.419,0.168-0.853,0.34-1.268,0.627c-0.078,0.055-0.131,0.139-0.145,0.232
	c-0.002,0.018-0.003,0.033-0.003,0.049c0,0.078,0.026,0.154,0.076,0.215c0.395,0.486,0.504,0.842,0.504,1.092
	c0,0.232-0.095,0.373-0.143,0.445c-1.394,2.072-10.961,1.656-12.681,1.135c-1.073-0.324-2.203-0.879-3.297-1.416
	c-1.624-0.797-3.303-1.619-4.92-1.77c-2.338-0.217-4.465,0.041-6.504,0.785c-0.097,0.035-0.173,0.113-0.205,0.213
	c-0.013,0.035-0.019,0.072-0.019,0.107c0,0.066,0.019,0.131,0.055,0.188c0.775,1.199,1.038,2.344,1.038,3.615
	c0,0.416-0.047,0.865-0.096,1.314c-0.75-0.242-1.204-0.854-1.66-1.521c-0.666-0.973-1.42-2.076-3.225-1.623
	c-1.863,0.467-1.74,2.211-1.631,3.748c0.059,0.826,0.119,1.682-0.1,2.34c-0.209,0.629-0.648,1.162-1.072,1.678
	c-0.85,1.033-1.814,2.203-0.426,4.025c1.583,2.078,6.675,1.762,9.081,0.998c0.137-0.041,0.231-0.164,0.238-0.307l0.019-0.377
	c0.06-1.24,0.103-2.137,0.831-3.148l0.828-0.904c0.449-0.436,0.883-0.912,1.145-1.562c0.379-0.061,0.678-0.016,0.892,0.16
	c0.517,0.424,0.601,1.494,0.601,2.434c0,0.244-0.006,0.48-0.011,0.693l-0.009,0.523c0,0.789,0.105,1.602,0.207,2.389
	c0.1,0.768,0.202,1.557,0.202,2.314c0,0.303-0.017,0.602-0.056,0.893c-0.174,1.289-0.762,2.207-1.387,3.178l-0.335,0.527
	c-0.505,0.812-0.624,1.623-0.737,2.406c-0.099,0.668-0.215,1.299-0.543,1.914c-1.85,0.076-1.895-0.006-1.971-1.084l-0.162-1.395
	c-0.141-0.775-0.551-1.547-0.947-2.295c-0.522-0.984-1.063-2.004-0.949-2.977c0.021-0.182-0.104-0.35-0.285-0.377
	c-1.798-0.291-3.312-0.066-4.775,0.15l-0.907,0.129c-1.629,0.217-2.372-0.234-3.246-1.203c-0.001,0-0.388-0.633-0.388-0.633
	c-0.18-0.357-0.367-0.725-0.698-0.979c-0.248-0.191-0.488-0.191-0.664-0.193l-0.24-0.045l-1.012-0.627
	c-0.476-0.271-0.966-0.551-1.346-0.912c-2.175-2.064-2.79-2.479-5.455-0.5c-1.719,1.275-3.153,1.566-4.65,0.943
	c-1.67-0.693-2.289-2.014-3.006-3.543l-0.532-1.092c-0.553-1.064-0.744-1.188-1.389-1.484l-0.559-0.273
	c-0.252-0.078-1.011-0.389-1.331-0.576c0-0.02-0.002-0.041-0.006-0.061c-0.034-0.16-0.177-0.27-0.334-0.27
	c-0.013,0-0.025,0.002-0.038,0.004c-0.012,0-0.023,0-0.034,0.002c-1.028,0.221-3.975,1.324-4.834,2.625
	c-0.26,0.393-0.348,0.748-0.348,1.08c0,0.348,0.094,0.668,0.187,0.986c0.107,0.365,0.218,0.744,0.22,1.215
	c0.001,0.092,0.037,0.18,0.103,0.242c0.064,0.064,0.152,0.1,0.243,0.1c0.23-0.002,0.395,0.059,0.52,0.193
	c0.485,0.52,0.36,2.072,0.25,3.441c-0.142,1.762-0.275,3.424,0.54,4.162c0.633,0.574,1.25,0.768,1.835,0.58
	c1.594-0.516,2.306-3.869,2.688-5.67c0,0,0.028-0.127,0.051-0.23c0.031,0.02,0.1,0.061,0.1,0.061
	c1.293,0.762,2.075,1.223,2.338,3.098c0.038,0.266,0.053,0.531,0.053,0.793c0,0.746-0.127,1.479-0.251,2.193l-0.165,1.029
	l-0.02,0.145c-0.274,2.072-0.296,2.24-1.477,3.676l-0.402,0.539c-0.521,0.732-0.895,1.186-1.534,1.111
	c-0.11-0.299-0.72-1.953-0.72-1.953l-0.844-2.273c-0.041-0.109-0.128-0.176-0.242-0.201c-0.589-0.127-1.085-0.062-1.435,0.186
	c-0.207,0.148-0.333,0.373-0.417,0.629c-0.079,0.006-0.164,0.01-0.164,0.01c-1.093,0.059-2.038,0.111-2.536-0.609
	c-0.336-0.486-0.455-1.391-0.562-2.188c-0.076-0.572-0.147-1.111-0.291-1.535l-0.092-0.275c-0.433-1.279-0.595-1.756-0.198-3.121
	c0.131-0.447,0.465-0.889,0.787-1.318c0.314-0.416,0.61-0.809,0.716-1.207c0.164-0.619,0.1-1.17-0.188-1.635
	c-0.386-0.621-1.148-1.055-2.268-1.283c-0.413-0.086-0.737-0.096-1.01-0.066c-0.071-1.252-0.38-2.123-0.601-2.734l-0.179-0.572
	c-0.169-3.471-1.299-4.572-3.348-6.572l-0.729-0.717c-1.36-1.342-1.471-1.451-1.74-3.227l-0.102-0.744
	c-0.17-1.314-0.317-2.449-1.503-3.748l-0.837-0.857c-0.602-0.592-0.602-0.592-0.275-1.914c0-0.002,0.253-1.826,0.253-1.826
	c0.051-0.602,0.099-1.17,0.24-1.652c0.119-0.404,0.397-0.719,0.749-1.115c0.436-0.492,0.979-1.104,1.247-2.023
	c0.375-1.289,0.391-4.455,0.028-5.742c-0.281-0.996-0.853-1.732-1.357-2.381c-0.587-0.756-1.051-1.354-1.077-2.25
	c-0.024-0.91,0.288-1.418,0.762-2.186l0.73-1.318c0.449-0.98,0.57-1.939,0.688-2.867c0.103-0.814,0.201-1.582,0.522-2.289
	c0.341-0.75,0.822-1.471,1.329-2.236c0.475-0.715,0.966-1.453,1.347-2.234c0.508-1.043,0.873-1.23,1.669-1.643l1.495-0.883
	c0.708-0.496,1.344-1.092,1.959-1.666c0.632-0.592,1.229-1.15,1.894-1.607l0.359-0.242c0.12-0.082,0.243-0.166,0.366-0.25
	c0.107,0.057,0.225,0.098,0.352,0.113c0.648,0.078,1.22,0.729,1.881,1.484c0.73,0.834,1.558,1.777,2.764,2.154
	c1.042,0.324,2.022,0.301,2.97,0.277c0.926-0.023,1.802-0.045,2.652,0.283c1.552,0.6,1.602,0.764,1.984,2.043l0.322,1.023
	c0.301,0.883,0.657,1.572,1.001,2.238c0.419,0.812,0.781,1.514,0.978,2.447l0.146,0.846c0.27,1.848,1.057,1.9,2.958,2.027
	c2.445,0.162,4.026,0.74,6.168,1.604c0.538,0.215,0.99,0.498,1.427,0.771c1.02,0.639,2.177,1.361,3.996,0.779
	c0.579-0.184,1.038-0.488,1.481-0.783c0.555-0.367,1.033-0.684,1.702-0.742c1.151-0.1,1.767,0.367,2.618,1.016
	c0.697,0.529,1.488,1.129,2.634,1.395c0.985,0.227,1.958,0.262,2.897,0.297c0.926,0.033,1.8,0.066,2.613,0.275l0.611,0.16
	c1.788,0.477,3.08,0.82,5.169-0.139l1.702-0.859l2.175-1.053c0.001-0.002,1.953-0.711,1.953-0.711
	c2.127-0.736,4.327-1.498,5.965-2.973l0.896-0.854c0.799-0.787,1.325-1.307,2.384-1.627c0.001,0,1.125-0.182,1.125-0.182
	c0.773-0.08,1.742-0.207,2.539-0.873c0.003,0.004,0.03,0.033,0.03,0.033c0.642,0.707,1.305,1.438,2.157,1.893
	c1.796,0.959,3.864,1.961,5.672,1.705c0.577-0.082,1.195-0.32,1.793-0.551c2.035-0.785,2.214-0.58,2.424-0.043
	c0.112,0.293,0.345,0.498,0.618,0.594l-0.074,1.273C180.607,187.713,180.5,190.232,179.831,192.164z"/>
<path fill="#3A89C9" d="M186.877,162.242c-0.208,0.529-0.488,0.73-0.844,0.986c-0.315,0.225-0.672,0.48-0.99,0.986
	c-0.28,0.445-0.359,0.988-0.359,1.561c0,0.371,0.033,0.756,0.065,1.135l0.044,1.295c-0.128,1.355-0.567,2.705-0.97,3.861
	l-0.932,3.256l-0.468,1.326c-0.579,1.621-1.09,3.066-1.388,4.848c-1.244-0.824-2.982-0.152-4.039,0.256
	c-0.49,0.189-0.997,0.385-1.344,0.434c-1.295,0.184-3.403-0.941-4.415-1.484c-0.539-0.287-1.058-0.857-1.606-1.463l-0.886-0.938
	c-0.231-0.244-0.556-0.346-0.889-0.295c-0.333,0.053-0.606,0.277-0.754,0.582c-0.303,0.627-0.681,0.717-1.771,0.83l-1.506,0.26
	c-1.545,0.465-2.365,1.271-3.232,2.127l-0.828,0.791c-1.329,1.197-3.329,1.891-5.264,2.561l-2.042,0.742l-2.373,1.146l-1.599,0.807
	c-1.419,0.65-2.111,0.467-3.786,0.021l-0.627-0.164c-1.027-0.266-2.056-0.303-3.05-0.34c-0.883-0.033-1.718-0.062-2.512-0.246
	c-0.716-0.166-1.243-0.566-1.854-1.029c-0.934-0.709-2.096-1.592-4.035-1.426c-1.19,0.104-2.005,0.643-2.659,1.076
	c-0.357,0.238-0.666,0.441-0.973,0.541c-0.878,0.279-1.309,0.045-2.282-0.566c-0.489-0.305-1.043-0.652-1.749-0.936
	c-2.253-0.908-4.056-1.564-6.728-1.742c-0.494-0.033-0.867-0.064-1.103-0.098c-0.016-0.092-0.2-1.156-0.2-1.156
	c-0.254-1.205-0.716-2.1-1.163-2.965c-0.324-0.627-0.63-1.221-0.882-1.959l-0.298-0.949c-0.486-1.627-0.826-2.449-3.211-3.369
	c-1.232-0.477-2.406-0.447-3.441-0.422c-0.818,0.021-1.588,0.041-2.308-0.184c-0.655-0.205-1.227-0.857-1.833-1.547
	c-0.57-0.652-1.197-1.355-2.004-1.787c0.446-0.547,0.804-1.201,0.976-2.047c0.291-1.439-0.25-2.52-0.684-3.387
	c-0.328-0.654-0.58-1.186-0.563-1.832c0.407-0.283,0.83-0.65,1.305-1.178c0.623-0.691,1.083-1.418,1.527-2.119l0.857-1.277
	c0.496-0.66,0.999-1.184,1.487-1.689c1.245-1.295,2.429-2.525,2.429-5.139c0-0.283-0.014-0.582-0.043-0.9
	c-0.347-3.768-3.515-4.424-6.061-4.95c-0.959-0.198-1.91-0.433-2.737-0.776c-0.006-0.144-0.024-0.276-0.024-0.426
	c0-1.566,0.336-3.417,0.617-4.96l0.175-0.978c0.082-0.47,0.277-0.946,0.484-1.451c0.31-0.755,0.661-1.611,0.669-2.598
	c0-0.012,0-0.025,0-0.038c0-0.916-0.299-1.698-0.563-2.39c-0.225-0.588-0.418-1.096-0.429-1.62c-0.01-0.53-0.422-0.965-0.95-1.003
	c-0.449-0.033-0.684-0.527-0.746-0.678c-0.087-0.214-0.13-0.441-0.13-0.653c0-0.274,0.072-0.524,0.213-0.684
	c0.144-0.163,0.902-0.263,1.355-0.322c1.195-0.157,3.001-0.395,3.506-2.17c0.071-0.25,0.101-0.487,0.101-0.711
	c0-0.789-0.373-1.412-0.639-1.858c-0.239-0.398-0.337-0.597-0.337-0.766c0-0.098,0.033-0.186,0.092-0.297
	c0,0,0.036-0.06,0.058-0.097c0.306,0.05,0.731,0.067,1.312-0.091c2.034-0.556,2.7-2.335,3.234-3.764
	c0.296-0.791,0.576-1.537,1.01-1.935c1.18-1.081,2.478-1.197,3.981-1.331c1.268-0.113,2.705-0.242,4.132-1.008l0.574-0.329
	c0.95-0.562,1.667-0.936,2.239-0.627c0.057,0.03,0.155,0.336,0.203,0.483c0.138,0.431,0.328,1.02,0.88,1.415
	c0.738,0.529,1.724,0.469,2.517,0.42l0.44-0.022c3.106-0.067,4.115-1.826,5.091-3.526c0.335-0.584,0.682-1.188,1.131-1.771
	l1.423-2.117c0.954-1.514,1.942-3.08,3.099-3.811l0.912-0.475c1.008-0.457,1.738-0.917,1.952-2.696
	c0.015-0.121,0.017-0.237,0.021-0.355c2.235,0.017,4.755,0.026,6.768-0.896c0,0,0.801-0.547,0.801-0.547
	c0.169-0.137,0.448-0.363,0.567-0.397c0.261-0.011,0.271-0.003,0.486,0.266c0.239,0.301,0.601,0.755,1.305,1.09
	c0.886,0.422,3.239,0.321,4.001,0.026c0.735-0.284,0.868-0.925,0.902-1.284c0.478-0.088,1.188-0.122,1.57-0.138l0.698-0.037
	c0.696-0.042,1.485-0.091,2.004,0.012c0.171,0.034,0.354,0.151,0.589,0.299c0.605,0.385,1.521,0.968,2.998,0.385
	c0.623-0.246,1.033-0.729,1.396-1.155c0.371-0.438,0.562-0.613,0.734-0.664c0.082,0.262,0.243,0.59,0.617,0.807
	c0,0,0.463,0.333,0.463,0.333l1.264,0.822c0,0,0.207,0.102,0.207,0.102c0.724,0.354,1.713,0.839,2.835,0.52
	c0.867-0.246,1.728-1.107,2.639-2.019c0.45-0.45,0.916-0.916,1.234-1.137c0.606-0.422,1.081-0.972,1.539-1.504
	c0.294-0.341,0.578-0.661,0.864-0.914c0.047,0.397,0.12,0.78,0.242,1.13c0.262,0.75,0.806,1.342,1.332,1.914
	c0.454,0.492,0.881,0.957,1.064,1.46c0.257,0.709,0.082,1.403-0.087,2.073l-0.175,0.807c0,0-0.289,1.532-0.289,1.532
	c-0.181,0.852-0.368,1.732-0.384,2.659c-0.03,1.721,0.687,2.771,1.517,3.988l0.376,0.557c1.332,2.007,2.38,4.898,2.734,7.544
	c0.358,2.678-0.739,4.345-2.129,6.456l-0.435,0.664c-0.734,1.135-1.457,2.477-0.723,4.047c0.305,0.65,0.645,1.065,0.945,1.431
	c0.487,0.594,0.84,1.023,0.791,2.243c-0.097,2.418-0.308,5.49-1.083,7.803l-0.412,1.206c-0.843,2.443-1.571,4.553-1.583,7.371
	c-0.007,1.527,0.514,2.924,1.017,4.275c0.677,1.818,1.316,3.536,0.677,5.455l-0.609,1.367c-0.553,1.09-1.076,2.117-0.483,3.623
	c0.391,0.992,1.708,2.838,3.123,2.818c0.907-0.012,1.46-0.803,1.904-1.438c0.209-0.297,0.406-0.578,0.592-0.717
	c0.081-0.062,0.257-0.068,0.443-0.076c0.311-0.012,0.697-0.027,1.035-0.295c0.264-0.211,0.345-0.555,0.416-0.859l0.135-0.41
	c0.257-0.324,1.353-1.594,1.514-1.727c0.312-0.203,0.904-0.523,1.192-0.287c0.218,0.178,0.312,0.621,0.312,1.17
	C187.34,160.574,187.164,161.514,186.877,162.242z"/>
<path fill="#7DA7D9" d="M17.647,78.473l0.87,0.021l0.98,0.038c1.661-0.069,2.421-1.376,2.786-2.004
	c0.388-0.667,0.583-1.218,0.672-1.902c0.044-0.345,0.292-0.701,0.58-1.115l0.328-0.485l0.246-0.52c0,0,0.021-0.048,0.04-0.091
	c0.018-0.004,0.042-0.011,0.042-0.011c0.094-0.038,0.189-0.041,0.46-0.039l0.121,0.001l0.309-0.002l0.477,0
	c0.211,0.006,0.385,0.085,0.699,0.237c0,0,0.198,0.076,0.362,0.138c0.257,0.741,0.906,0.973,1.167,1.053
	c0,0,0.032,0.011,0.061,0.021c0,0.02-0.001,0.033-0.001,0.055c0,0.294,0.06,0.794,0.538,1.195c0.528,0.444,1.151,0.385,1.486,0.354
	c0,0,0.115-0.008,0.158-0.011c0.136,0.052,0.366,0.328,0.381,0.494c-0.005,0.011-0.101,0.264-0.101,0.264l-0.229,0.667
	c0,0.003-0.02,0.926-0.02,0.926s0.011,0.234,0.013,0.297c-0.051,0.065-0.14,0.146-0.214,0.194c-0.056-0.008-0.151-0.021-0.151-0.021
	l-0.845-0.025c-0.52,0.095-0.83,0.38-0.997,0.533c0,0-0.059,0.053-0.069,0.062c-0.014,0.006-0.346,0.147-0.346,0.147
	c-0.356,0.133-0.846,0.316-1.265,0.801l-0.566,0.877l-0.272,0.459l-0.256,0.291c-0.277,0.295-0.621,0.663-0.806,1.257
	c0,0-0.115,0.476-0.115,0.476c-0.034,0.161-0.068,0.327-0.112,0.385c-0.209,0.273-0.436,0.427-0.676,0.457
	c-0.294,0.036-0.659-0.104-1.025-0.394l-0.857-0.515l-0.242-0.118c0,0-0.031-0.017-0.054-0.03c-0.002-0.002-0.122-0.14-0.155-0.177
	c-0.207-0.414-0.58-0.574-0.78-0.648c0,0-1.035-0.074-1.035-0.074s-0.029,0.002-0.045,0.004c-0.035-0.144-0.103-0.435-0.103-0.435
	c-0.154-0.456-0.399-0.775-0.62-1.058c-0.103-0.367-0.256-0.736-0.441-1.124c-0.116-0.243-0.305-0.641-0.386-0.906
	C17.637,78.475,17.647,78.473,17.647,78.473z"/>
<path fill="#0072BC" d="M232.12,104.119l-0.489-0.21l-0.672-0.323c-0.104-0.039-0.208-0.138-0.382-0.31l-0.877-0.684
	c-1.256-0.662-2.801-0.78-4.469-0.342c-0.002,0-0.279,0.051-0.279,0.051c-1.121,0.194-1.825,0.355-2.148,0.963
	c-0.095,0.179-0.168,0.394-0.168,0.633c0,0.377,0.182,0.814,0.743,1.263c0,0,0.02,0.017,0.029,0.025
	c-0.003,0.03-0.008,0.068-0.008,0.068c-0.019,0.137-0.042,0.304-0.042,0.491c0,0.232,0.036,0.494,0.161,0.76
	c0.026,0.056,0.062,0.09,0.091,0.14c-0.368,0.182-0.79,0.458-1.244,0.923c-0.001,0-0.064,0.065-0.064,0.065
	c-0.511,0.522-1.09,1.113-1.128,2.158c-0.001,0.028-0.001,0.055-0.001,0.082c0,0.852,0.495,1.367,0.826,1.711l0.138,0.146
	l0.846,0.734l0.507,0.415c0.579,0.563,1.503,0.932,2.16,1.047c0.717,0.126,1.216-0.176,1.498-0.354
	c0.029,0.032,0.082,0.089,0.082,0.089c0.122,0.131,0.277,0.229,0.449,0.281c0.399,0.124,0.929,0.096,1.407-0.325
	c0.328,0.104,0.768,0.206,1.237,0.041c0.282-0.1,0.476-0.284,0.991-0.778l0.724-0.658c0.473-0.35,0.694-0.891,0.872-1.326
	l0.174-0.385c1.097-1.821,1.427-3.654,0.884-4.904C233.63,104.828,232.974,104.3,232.12,104.119z"/>
<path fill="#0072BC" d="M250.057,110.663c0-0.001-0.558-0.928-0.558-0.928l-0.243-0.335l-0.064-0.25
	c-0.087-0.379-0.219-0.952-0.719-1.329c-0.633-0.477-1.508-0.466-2.064-0.312c-1.361,0.376-1.572,1.492-1.687,2.091
	c-0.045,0.236-0.087,0.459-0.167,0.583c0,0-0.257,0.283-0.257,0.283c-0.402,0.337-0.655,0.704-0.655,1.435
	c0,0.063,0.002,0.129,0.005,0.198l0.009,0.275c0.009,0.457,0.021,1.082,0.525,1.714c0.06,0.075,0.131,0.142,0.209,0.197
	c0,0,0.197,0.14,0.31,0.219c0.248,0.345,0.537,0.604,0.9,0.696c0.659,0.167,1.157-0.18,1.32-0.293
	c0.014-0.01-0.117,0.066-0.104,0.056l0.749-0.58c0.093-0.105,0.131-0.148,0.439-0.229c0.184-0.048,0.428-0.237,0.559-0.374
	l0.521-0.543C249.599,112.756,250.457,111.949,250.057,110.663z"/>
</svg>
